<svg width="61" height="61" viewBox="0 0 61 61" fill="none" xmlns="http://www.w3.org/2000/svg">
<path fill-rule="evenodd" clip-rule="evenodd" d="M32.7547 3.89673C32.8893 2.35834 31.7497 0.988143 30.2054 1.00008C25.1148 1.03942 20.1039 2.39918 15.6721 4.96822C10.4312 8.00626 6.25537 12.5874 3.71442 18.0865C1.17347 23.5856 0.391192 29.7348 1.47433 35.695C2.05655 38.8988 3.16253 41.964 4.73087 44.7746C3.88347 46.0481 3.38967 47.577 3.38967 49.2214C3.38967 53.6601 6.98799 57.2584 11.4267 57.2584C13.038 57.2584 14.5385 56.7843 15.7963 55.968C18.806 57.6931 22.1145 58.8826 25.5752 59.4617C31.5499 60.4615 37.6876 59.5935 43.1507 56.976C48.6138 54.3585 53.1362 50.1191 56.1008 44.8363C58.6077 40.3691 59.8974 35.3397 59.8656 30.249C59.856 28.7048 58.47 27.5844 56.9337 27.7405C55.3973 27.8965 54.2956 29.271 54.2708 30.8151C54.2076 34.7566 53.1673 38.6366 51.2239 42.0996C48.8226 46.3786 45.1595 49.8126 40.7344 51.9327C36.3092 54.0529 31.3377 54.756 26.4982 53.9461C23.9146 53.5138 21.4358 52.6615 19.1547 51.4366C19.356 50.7329 19.4638 49.9897 19.4638 49.2214C19.4638 44.7826 15.8655 41.1843 11.4267 41.1843C10.6907 41.1843 9.97778 41.2832 9.30054 41.4685C8.19568 39.3529 7.40828 37.071 6.9765 34.6951C6.09915 29.8674 6.7328 24.8865 8.79097 20.4322C10.8491 15.9779 14.2316 12.2672 18.4767 9.8064C21.9122 7.8149 25.7773 6.72054 29.7175 6.60223C31.2611 6.55588 32.6201 5.43512 32.7547 3.89673ZM9.30054 41.4685C10.4407 43.6517 11.9189 45.6578 13.6932 47.4076C15.3218 49.0136 17.1629 50.3671 19.1547 51.4366C18.6151 53.3224 17.4038 54.9247 15.7963 55.968C13.6101 54.7149 11.5814 53.1791 9.76657 51.3894C7.7718 49.4223 6.08021 47.1927 4.73087 44.7746C5.79166 43.1805 7.40656 41.9868 9.30054 41.4685ZM48.7874 19.6803C48.7874 21.2103 48.3355 22.6347 47.5578 23.8274C46.6407 21.4498 45.2333 19.2756 43.4114 17.4537C41.5895 15.6318 39.4153 14.2244 37.0376 13.3073C38.2303 12.5296 39.6548 12.0776 41.1848 12.0776C45.3836 12.0776 48.7874 15.4815 48.7874 19.6803ZM33.6631 18.5667C35.7224 19.1274 37.6084 20.2168 39.1284 21.7368C40.6484 23.2567 41.7377 25.1427 42.2984 27.2019C41.9349 27.2553 41.5631 27.2829 41.1848 27.2829C36.986 27.2829 33.5822 23.8791 33.5822 19.6803C33.5822 19.302 33.6098 18.9302 33.6631 18.5667ZM33.6631 18.5667C33.9861 16.3659 35.2521 14.4716 37.0376 13.3073C35.8384 12.8448 34.5875 12.507 33.3039 12.3037C29.4754 11.6973 25.5533 12.3185 22.0996 14.0783C18.6458 15.838 15.8379 18.646 14.0781 22.0997C12.7748 24.6576 12.0961 27.4724 12.0779 30.3158C12.0674 31.9726 13.6584 33.0894 15.2948 32.8302C16.9313 32.571 18.0373 31.0163 18.1811 29.3657C18.3174 27.8003 18.7533 26.2661 19.4751 24.8496C20.6541 22.5356 22.5354 20.6543 24.8494 19.4752C27.1634 18.2962 29.7913 17.88 32.3563 18.2862C32.7983 18.3562 33.2345 18.45 33.6631 18.5667ZM42.2984 27.2019C42.4151 27.6306 42.5089 28.0669 42.5789 28.5088C42.9852 31.0739 42.569 33.7018 41.39 36.0157C40.2109 38.3297 38.3296 40.2111 36.0156 41.3901C34.5991 42.1119 33.0649 42.5478 31.4995 42.6841C29.8489 42.8279 28.2941 43.9339 28.035 45.5703C27.7758 47.2068 28.8926 48.7978 30.5494 48.7872C33.3928 48.7691 36.2076 48.0903 38.7655 46.787C42.2192 45.0273 45.0272 42.2193 46.7869 38.7656C48.5467 35.3119 49.1679 31.3898 48.5615 27.5613C48.3582 26.2777 48.0204 25.0266 47.5578 23.8274C46.3935 25.6129 44.4992 26.8789 42.2984 27.2019Z" fill="#FAFAFA"/>
<path d="M30.2054 1.00008L30.2016 0.500092L30.2054 1.00008ZM32.7547 3.89673L32.2566 3.85315L32.7547 3.89673ZM15.6721 4.96822L15.4214 4.53565L15.6721 4.96822ZM3.71442 18.0865L3.26053 17.8768L3.71442 18.0865ZM1.47433 35.695L1.96628 35.6056L1.47433 35.695ZM25.5752 59.4617L25.6578 58.9686L25.5752 59.4617ZM56.1008 44.8363L56.5368 45.081L56.1008 44.8363ZM59.8656 30.249L59.3657 30.2521L59.8656 30.249ZM54.2708 30.8151L54.7708 30.8231V30.8231L54.2708 30.8151ZM51.2239 42.0996L50.7879 41.8549L51.2239 42.0996ZM40.7344 51.9327L40.9504 52.3836L40.7344 51.9327ZM26.4982 53.9461L26.5808 53.453H26.5808L26.4982 53.9461ZM6.9765 34.6951L6.48456 34.7845L6.9765 34.6951ZM8.79097 20.4322L9.24486 20.6419L8.79097 20.4322ZM18.4767 9.8064L18.2259 9.37382L18.4767 9.8064ZM29.7175 6.60223L29.7325 7.102L29.7175 6.60223ZM13.6932 47.4076L13.3421 47.7636H13.3421L13.6932 47.4076ZM9.76657 51.3894L10.1176 51.0334L9.76657 51.3894ZM43.4114 17.4537L43.765 17.1002L43.4114 17.4537ZM39.1284 21.7368L39.482 21.3832L39.1284 21.7368ZM33.3039 12.3037L33.2257 12.7975L33.3039 12.3037ZM22.0996 14.0783L22.3265 14.5238L22.0996 14.0783ZM14.0781 22.0997L14.5236 22.3267L14.0781 22.0997ZM12.0779 30.3158L12.5779 30.319L12.0779 30.3158ZM15.2948 32.8302L15.2166 32.3364L15.2948 32.8302ZM18.1811 29.3657L18.6792 29.4091L18.1811 29.3657ZM19.4751 24.8496L19.9206 25.0766L19.4751 24.8496ZM24.8494 19.4752L24.6224 19.0297L24.8494 19.4752ZM32.3563 18.2862L32.2781 18.7801L32.3563 18.2862ZM42.5789 28.5088L42.0851 28.5871V28.5871L42.5789 28.5088ZM41.39 36.0157L41.8355 36.2427V36.2427L41.39 36.0157ZM36.0156 41.3901L35.7886 40.9446H35.7886L36.0156 41.3901ZM31.4995 42.6841L31.5429 43.1822H31.5429L31.4995 42.6841ZM28.035 45.5703L28.5288 45.6486L28.035 45.5703ZM30.5494 48.7872L30.5526 49.2872L30.5494 48.7872ZM38.7655 46.787L38.9925 47.2325L38.7655 46.787ZM46.7869 38.7656L47.2324 38.9926L46.7869 38.7656ZM48.5615 27.5613L48.0677 27.6395L48.5615 27.5613ZM30.2093 1.50006C31.4267 1.49065 32.3683 2.5757 32.2566 3.85315L33.2528 3.9403C33.4102 2.14097 32.0726 0.485632 30.2016 0.500092L30.2093 1.50006ZM15.9229 5.4008C20.2794 2.87541 25.2052 1.53874 30.2093 1.50006L30.2016 0.500092C25.0245 0.540104 19.9285 1.92296 15.4214 4.53565L15.9229 5.4008ZM4.16831 18.2962C6.66609 12.8906 10.771 8.38723 15.9229 5.4008L15.4214 4.53565C10.0914 7.62529 5.84465 12.2843 3.26053 17.8768L4.16831 18.2962ZM1.96628 35.6056C0.901534 29.7467 1.67052 23.7019 4.16831 18.2962L3.26053 17.8768C0.676418 23.4693 -0.119151 29.723 0.982391 35.7844L1.96628 35.6056ZM5.16749 44.531C3.62579 41.7681 2.53861 38.7549 1.96628 35.6056L0.98239 35.7844C1.5745 39.0426 2.69926 42.1599 4.29425 45.0182L5.16749 44.531ZM3.88967 49.2214C3.88967 47.6786 4.35264 46.2455 5.14713 45.0516L4.31461 44.4976C3.4143 45.8506 2.88967 47.4755 2.88967 49.2214H3.88967ZM11.4267 56.7584C7.26414 56.7584 3.88967 53.384 3.88967 49.2214H2.88967C2.88967 53.9363 6.71185 57.7584 11.4267 57.7584V56.7584ZM15.5241 55.5486C14.3448 56.3139 12.9385 56.7584 11.4267 56.7584V57.7584C13.1375 57.7584 14.7321 57.2547 16.0685 56.3874L15.5241 55.5486ZM25.6578 58.9686C22.2558 58.3993 19.0035 57.23 16.0449 55.5342L15.5477 56.4018C18.6085 58.1562 21.9731 59.3659 25.4927 59.9549L25.6578 58.9686ZM42.9347 56.5251C37.5644 59.0981 31.531 59.9514 25.6578 58.9686L25.4927 59.9549C31.5689 60.9717 37.8108 60.0889 43.3667 57.4269L42.9347 56.5251ZM55.6647 44.5917C52.7505 49.7847 48.305 53.9521 42.9347 56.5251L43.3667 57.4269C48.9227 54.765 53.5219 50.4536 56.5368 45.081L55.6647 44.5917ZM59.3657 30.2521C59.3968 35.2564 58.1291 40.2003 55.6647 44.5917L56.5368 45.081C59.0863 40.5379 60.3979 35.4231 60.3656 30.2459L59.3657 30.2521ZM56.9842 28.2379C58.26 28.1083 59.3581 29.0348 59.3657 30.2521L60.3656 30.2459C60.354 28.3748 58.6801 27.0605 56.8832 27.243L56.9842 28.2379ZM54.7708 30.8231C54.7921 29.4955 55.7352 28.3648 56.9842 28.2379L56.8832 27.243C55.0594 27.4283 53.7992 29.0465 53.7709 30.8071L54.7708 30.8231ZM51.66 42.3443C53.6441 38.8086 54.7062 34.8473 54.7708 30.8231L53.7709 30.8071C53.709 34.6659 52.6905 38.4645 50.7879 41.8549L51.66 42.3443ZM40.9504 52.3836C45.4683 50.219 49.2083 46.7131 51.66 42.3443L50.7879 41.8549C48.4369 46.0442 44.8506 49.4061 40.5183 51.4818L40.9504 52.3836ZM26.4157 54.4393C31.3567 55.2661 36.4325 54.5482 40.9504 52.3836L40.5183 51.4818C36.186 53.5575 31.3188 54.2459 26.5808 53.453L26.4157 54.4393ZM18.9181 51.8771C21.2471 53.1277 23.7779 53.9979 26.4157 54.4393L26.5808 53.453C24.0513 53.0297 21.6245 52.1953 19.3912 50.9961L18.9181 51.8771ZM18.9638 49.2214C18.9638 49.9427 18.8626 50.6396 18.674 51.2991L19.6354 51.5741C19.8494 50.8262 19.9638 50.0367 19.9638 49.2214H18.9638ZM11.4267 41.6843C15.5894 41.6843 18.9638 45.0587 18.9638 49.2214H19.9638C19.9638 44.5065 16.1416 40.6843 11.4267 40.6843V41.6843ZM9.4325 41.9508C10.0671 41.7771 10.7357 41.6843 11.4267 41.6843V40.6843C10.6457 40.6843 9.88842 40.7893 9.16858 40.9863L9.4325 41.9508ZM6.48456 34.7845C6.92539 37.2102 7.72931 39.54 8.85734 41.7L9.74374 41.2371C8.66205 39.1658 7.89117 36.9318 7.46844 34.6057L6.48456 34.7845ZM8.33708 20.2225C6.23575 24.7702 5.58881 29.8555 6.48456 34.7845L7.46844 34.6057C6.6095 29.8792 7.22986 25.0028 9.24486 20.6419L8.33708 20.2225ZM18.2259 9.37382C13.8918 11.8862 10.4384 15.6748 8.33708 20.2225L9.24486 20.6419C11.2599 16.2811 14.5714 12.6482 18.7275 10.239L18.2259 9.37382ZM29.7025 6.10245C25.6797 6.22324 21.7335 7.34055 18.2259 9.37382L18.7275 10.239C22.0909 8.28924 25.875 7.21783 29.7325 7.102L29.7025 6.10245ZM32.2566 3.85315C32.1472 5.10377 31.0297 6.0626 29.7025 6.10245L29.7325 7.102C31.4925 7.04916 33.093 5.76646 33.2528 3.9403L32.2566 3.85315ZM14.0443 47.0515C12.3072 45.3385 10.86 43.3745 9.74374 41.2371L8.85734 41.7C10.0214 43.9289 11.5306 45.9771 13.3421 47.7636L14.0443 47.0515ZM19.3912 50.9961C17.4412 49.949 15.6387 48.6239 14.0443 47.0515L13.3421 47.7636C15.0049 49.4033 16.8846 50.7852 18.9181 51.8771L19.3912 50.9961ZM16.0685 56.3874C17.7753 55.2797 19.0619 53.5783 19.6354 51.5741L18.674 51.2991C18.1682 53.0665 17.0324 54.5697 15.5241 55.5486L16.0685 56.3874ZM9.41549 51.7454C11.2612 53.5655 13.3243 55.1274 15.5477 56.4018L16.0449 55.5342C13.8958 54.3023 11.9017 52.7927 10.1176 51.0334L9.41549 51.7454ZM4.29425 45.0182C5.66651 47.4774 7.38684 49.7449 9.41549 51.7454L10.1176 51.0334C8.15676 49.0997 6.49391 46.908 5.16749 44.531L4.29425 45.0182ZM9.16858 40.9863C7.15568 41.537 5.44084 42.8051 4.31461 44.4976L5.14713 45.0516C6.14248 43.5558 7.65744 42.4365 9.4325 41.9508L9.16858 40.9863ZM47.9766 24.1005C48.8057 22.8291 49.2874 21.3102 49.2874 19.6803H48.2874C48.2874 21.1104 47.8653 22.4404 47.139 23.5543L47.9766 24.1005ZM48.0243 23.6474C47.0823 21.2051 45.6365 18.9717 43.765 17.1002L43.0579 17.8073C44.8301 19.5795 46.1992 21.6945 47.0913 24.0073L48.0243 23.6474ZM43.765 17.1002C41.8934 15.2286 39.6599 13.7828 37.2176 12.8408L36.8577 13.7738C39.1706 14.6659 41.2856 16.035 43.0579 17.8073L43.765 17.1002ZM41.1848 11.5776C39.5549 11.5776 38.036 12.0594 36.7645 12.8885L37.3107 13.7261C38.4247 12.9998 39.7547 12.5776 41.1848 12.5776V11.5776ZM49.2874 19.6803C49.2874 15.2053 45.6598 11.5776 41.1848 11.5776V12.5776C45.1075 12.5776 48.2874 15.7576 48.2874 19.6803H49.2874ZM33.5318 19.0492C35.5074 19.587 37.3167 20.6322 38.7748 22.0903L39.482 21.3832C37.9002 19.8014 35.9375 18.6677 33.7945 18.0843L33.5318 19.0492ZM38.7748 22.0903C40.233 23.5485 41.2781 25.3577 41.816 27.3333L42.7808 27.0706C42.1974 24.9276 41.0637 22.965 39.482 21.3832L38.7748 22.0903ZM41.1848 27.7829C41.5875 27.7829 41.9836 27.7535 42.371 27.6966L42.2258 26.7072C41.8863 26.7571 41.5387 26.7829 41.1848 26.7829V27.7829ZM33.0822 19.6803C33.0822 24.1552 36.7098 27.7829 41.1848 27.7829V26.7829C37.2621 26.7829 34.0822 23.603 34.0822 19.6803H33.0822ZM33.1684 18.4941C33.1116 18.8816 33.0822 19.2776 33.0822 19.6803H34.0822C34.0822 19.3264 34.108 18.9788 34.1578 18.6393L33.1684 18.4941ZM36.7645 12.8885C34.8627 14.1286 33.5129 16.1471 33.1684 18.4941L34.1578 18.6393C34.4594 16.5847 35.6416 14.8146 37.3107 13.7261L36.7645 12.8885ZM37.2176 12.8408C35.9857 12.3657 34.7006 12.0187 33.3821 11.8098L33.2257 12.7975C34.4743 12.9953 35.6912 13.3239 36.8577 13.7738L37.2176 12.8408ZM33.3821 11.8098C29.4493 11.1869 25.4203 11.8251 21.8726 13.6328L22.3265 14.5238C25.6862 12.812 29.5015 12.2077 33.2257 12.7975L33.3821 11.8098ZM21.8726 13.6328C18.3248 15.4405 15.4403 18.3249 13.6326 21.8727L14.5236 22.3267C16.2355 18.9671 18.9669 16.2356 22.3265 14.5238L21.8726 13.6328ZM13.6326 21.8727C12.2938 24.5002 11.5966 27.3917 11.5779 30.3126L12.5779 30.319C12.5956 27.553 13.2559 24.8149 14.5236 22.3267L13.6326 21.8727ZM11.5779 30.3126C11.565 32.3413 13.4978 33.6211 15.3731 33.3241L15.2166 32.3364C13.819 32.5577 12.5697 31.6039 12.5779 30.319L11.5779 30.3126ZM15.3731 33.3241C17.2985 33.0191 18.5215 31.2191 18.6792 29.4091L17.683 29.3223C17.5531 30.8135 16.5641 32.123 15.2166 32.3364L15.3731 33.3241ZM18.6792 29.4091C18.81 27.9073 19.2282 26.4355 19.9206 25.0766L19.0296 24.6226C18.2785 26.0967 17.8249 27.6933 17.683 29.3223L18.6792 29.4091ZM19.9206 25.0766C21.0517 22.8567 22.8565 21.0518 25.0764 19.9207L24.6224 19.0297C22.2144 20.2567 20.2566 22.2145 19.0296 24.6226L19.9206 25.0766ZM25.0764 19.9207C27.2963 18.7896 29.8173 18.3903 32.2781 18.7801L32.4345 17.7924C29.7652 17.3696 27.0305 17.8027 24.6224 19.0297L25.0764 19.9207ZM32.2781 18.7801C32.7021 18.8472 33.1205 18.9372 33.5318 19.0492L33.7945 18.0843C33.3484 17.9628 32.8945 17.8652 32.4345 17.7924L32.2781 18.7801ZM41.816 27.3333C41.9279 27.7446 42.0179 28.163 42.0851 28.5871L43.0728 28.4306C42.9999 27.9707 42.9023 27.5167 42.7808 27.0706L41.816 27.3333ZM42.0851 28.5871C42.4748 31.0478 42.0756 33.5688 40.9445 35.7887L41.8355 36.2427C43.0624 33.8347 43.4956 31.1 43.0728 28.4306L42.0851 28.5871ZM40.9445 35.7887C39.8134 38.0086 38.0085 39.8135 35.7886 40.9446L36.2426 41.8356C38.6507 40.6086 40.6085 38.6508 41.8355 36.2427L40.9445 35.7887ZM35.7886 40.9446C34.4297 41.637 32.9579 42.0552 31.4561 42.186L31.5429 43.1822C33.1719 43.0403 34.7685 42.5867 36.2426 41.8356L35.7886 40.9446ZM31.4561 42.186C29.6461 42.3436 27.8461 43.5667 27.5411 45.4921L28.5288 45.6486C28.7422 44.3011 30.0517 43.3121 31.5429 43.1822L31.4561 42.186ZM27.5411 45.4921C27.2441 47.3674 28.5239 49.3002 30.5526 49.2872L30.5462 48.2873C29.2613 48.2954 28.3074 47.0462 28.5288 45.6486L27.5411 45.4921ZM30.5526 49.2872C33.4734 49.2686 36.3649 48.5713 38.9925 47.2325L38.5385 46.3415C36.0503 47.6093 33.3122 48.2696 30.5462 48.2873L30.5526 49.2872ZM38.9925 47.2325C42.5403 45.4248 45.4247 42.5404 47.2324 38.9926L46.3414 38.5386C44.6296 41.8983 41.8981 44.6297 38.5385 46.3415L38.9925 47.2325ZM47.2324 38.9926C49.0401 35.4448 49.6782 31.4158 49.0553 27.4831L48.0677 27.6395C48.6575 31.3637 48.0532 35.179 46.3414 38.5386L47.2324 38.9926ZM49.0553 27.4831C48.8465 26.1645 48.4995 24.8794 48.0243 23.6474L47.0913 24.0073C47.5413 25.1739 47.8699 26.3908 48.0677 27.6395L49.0553 27.4831ZM42.371 27.6966C44.7181 27.3521 46.7365 26.0023 47.9766 24.1005L47.139 23.5543C46.0506 25.2235 44.2804 26.4057 42.2258 26.7072L42.371 27.6966Z" fill="#FAFAFA"/>
</svg>
