<svg width="363" height="594" viewBox="0 0 363 594" fill="none" xmlns="http://www.w3.org/2000/svg">
<g filter="url(#filter0_f_0_213)">
<mask id="path-1-inside-1_0_213" fill="white">
<path fill-rule="evenodd" clip-rule="evenodd" d="M384.874 -107.674C384.97 -108.774 384.155 -109.745 383.054 -109.835C311.853 -115.655 240.554 -99.5789 178.721 -63.7354C116.31 -27.5574 66.5828 26.9966 36.3243 92.482C6.06576 157.967 -3.24991 231.194 9.64853 302.17C16.5818 340.322 29.7522 376.824 48.4286 410.293C38.3358 425.459 32.4543 443.668 32.4543 463.251C32.4543 516.11 75.3044 558.96 128.163 558.96C147.352 558.96 165.222 553.312 180.202 543.589C216.042 564.132 255.439 578.296 296.651 585.193C367.8 597.099 440.889 586.762 505.946 555.592C571.002 524.422 624.857 473.938 660.16 411.029C695.137 348.701 710.216 277.185 703.402 206.071C703.297 204.972 702.315 204.17 701.216 204.282L638.941 210.608C637.842 210.719 637.043 211.701 637.147 212.801C642.576 270.278 630.354 328.063 602.085 378.438C573.489 429.395 529.867 470.287 477.171 495.535C424.475 520.782 365.273 529.155 307.642 519.511C276.875 514.362 247.356 504.213 220.191 489.626C222.588 481.248 223.871 472.399 223.871 463.251C223.871 410.393 181.021 367.543 128.163 367.543C119.399 367.543 110.911 368.721 102.847 370.927C89.6895 345.732 80.3123 318.557 75.1703 290.263C64.7226 232.772 72.2683 173.459 96.7777 120.415C121.287 67.3722 161.566 23.1835 212.119 -6.1207C262.094 -35.0903 319.703 -48.1183 377.25 -43.4918C378.351 -43.4033 379.322 -44.2165 379.418 -45.3168L384.874 -107.674ZM102.847 370.927C116.424 396.923 134.027 420.812 155.155 441.647C174.549 460.772 196.473 476.89 220.191 489.626C213.767 512.084 199.344 531.164 180.202 543.589C154.166 528.666 130.008 510.378 108.395 489.065C84.6411 465.64 64.497 439.089 48.4286 410.293C61.0618 391.311 80.2931 377.097 102.847 370.927ZM573.076 111.458C573.076 129.678 567.694 146.641 558.433 160.843C547.512 132.53 530.752 106.639 509.056 84.943C487.36 63.247 461.469 46.4868 433.156 35.5662C447.358 26.305 464.321 20.9229 482.541 20.9229C532.542 20.9229 573.076 61.4567 573.076 111.458ZM392.971 98.1972C417.493 104.874 439.952 117.847 458.052 135.947C476.153 154.047 489.126 176.506 495.802 201.029C491.474 201.664 487.046 201.993 482.541 201.993C432.54 201.993 392.006 161.459 392.006 111.458C392.006 106.953 392.335 102.525 392.971 98.1972ZM392.971 98.1972C396.817 71.9888 411.893 49.4307 433.156 35.5662C418.875 30.0579 403.978 26.0353 388.692 23.6143C343.101 16.3934 296.395 23.791 255.267 44.7468C214.139 65.7026 180.701 99.1407 159.745 140.269C139.092 180.802 131.608 226.754 138.309 271.716C138.472 272.809 139.497 273.554 140.588 273.381L207.88 262.723C208.971 262.55 209.714 261.525 209.556 260.432C205.235 230.516 210.276 199.976 224.014 173.015C238.054 145.459 260.458 123.056 288.013 109.016C315.569 94.9752 346.862 90.0188 377.408 94.8568C382.671 95.6903 387.866 96.8073 392.971 98.1972ZM495.802 201.029C497.192 206.134 498.309 211.328 499.143 216.591C503.981 247.137 499.024 278.43 484.984 305.986C470.944 333.542 448.54 355.945 420.984 369.986C394.023 383.723 363.484 388.764 333.568 384.444C332.474 384.286 331.45 385.029 331.277 386.12L320.619 453.411C320.446 454.502 321.191 455.528 322.284 455.691C367.246 462.391 413.197 454.907 453.731 434.254C494.859 413.299 528.297 379.861 549.253 338.733C570.208 297.605 577.606 250.898 570.385 205.307C567.964 190.022 563.941 175.124 558.433 160.843C544.569 182.106 522.011 197.182 495.802 201.029Z"/>
</mask>
<path d="M383.054 -109.835L383.013 -109.336L383.054 -109.835ZM384.874 -107.674L384.376 -107.717V-107.717L384.874 -107.674ZM178.721 -63.7354L178.47 -64.168L178.721 -63.7354ZM36.3243 92.482L36.7782 92.6917L36.3243 92.482ZM9.64853 302.17L9.15659 302.259L9.64853 302.17ZM296.651 585.193L296.568 585.686L296.651 585.193ZM505.946 555.592L506.162 556.043L505.946 555.592ZM660.16 411.029L659.724 410.784L660.16 411.029ZM703.402 206.071L702.904 206.119L703.402 206.071ZM701.216 204.282L701.266 204.779L701.216 204.282ZM638.941 210.608L638.992 211.105L638.941 210.608ZM637.147 212.801L637.644 212.754L637.147 212.801ZM602.085 378.438L601.648 378.193L602.085 378.438ZM477.171 495.535L477.387 495.986L477.171 495.535ZM307.642 519.511L307.56 520.004L307.642 519.511ZM75.1703 290.263L74.6784 290.352L75.1703 290.263ZM96.7777 120.415L97.2316 120.625L96.7777 120.415ZM212.119 -6.1207L212.37 -5.68812L212.119 -6.1207ZM377.25 -43.4918L377.21 -42.9934L377.25 -43.4918ZM379.418 -45.3168L379.916 -45.2732V-45.2732L379.418 -45.3168ZM155.155 441.647L155.506 441.291L155.155 441.647ZM108.395 489.065L108.044 489.421L108.395 489.065ZM509.056 84.943L508.703 85.2966L509.056 84.943ZM458.052 135.947L457.699 136.301L458.052 135.947ZM388.692 23.6143L388.77 23.1204L388.692 23.6143ZM255.267 44.7468L255.04 44.3013L255.267 44.7468ZM159.745 140.269L160.191 140.496L159.745 140.269ZM138.309 271.716L138.803 271.642L138.309 271.716ZM140.588 273.381L140.666 273.875L140.588 273.381ZM207.88 262.723L207.802 262.229L207.88 262.723ZM209.556 260.432L210.051 260.361L209.556 260.432ZM224.014 173.015L224.459 173.242L224.014 173.015ZM288.013 109.016L288.24 109.461L288.013 109.016ZM377.408 94.8568L377.33 95.3506L377.408 94.8568ZM499.143 216.591L499.637 216.513L499.143 216.591ZM484.984 305.986L485.43 306.213L484.984 305.986ZM420.984 369.986L420.757 369.54L420.984 369.986ZM333.568 384.444L333.496 384.939L333.568 384.444ZM331.277 386.12L330.783 386.042L331.277 386.12ZM320.619 453.411L321.113 453.49L320.619 453.411ZM322.284 455.691L322.357 455.196L322.284 455.691ZM453.731 434.254L453.504 433.809L453.731 434.254ZM549.253 338.733L548.807 338.506L549.253 338.733ZM570.385 205.307L569.891 205.386L570.385 205.307ZM383.013 -109.336C383.837 -109.269 384.448 -108.543 384.376 -107.717L385.372 -107.63C385.492 -109.005 384.474 -110.22 383.095 -110.333L383.013 -109.336ZM178.971 -63.3028C240.717 -99.0952 311.913 -115.148 383.013 -109.336L383.095 -110.333C311.792 -116.161 240.391 -100.063 178.47 -64.168L178.971 -63.3028ZM36.7782 92.6917C66.9936 27.2998 116.65 -27.1764 178.971 -63.3028L178.47 -64.168C115.97 -27.9383 66.1721 26.6935 35.8704 92.2723L36.7782 92.6917ZM10.1405 302.081C-2.73956 231.206 6.56281 158.084 36.7782 92.6917L35.8704 92.2723C5.56871 157.851 -3.76025 231.182 9.15659 302.259L10.1405 302.081ZM48.8652 410.05C30.2154 376.628 17.0639 340.178 10.1405 302.081L9.15659 302.259C16.0998 340.465 29.2889 377.02 47.992 410.537L48.8652 410.05ZM32.9543 463.251C32.9543 443.77 38.8049 425.656 48.8449 410.57L48.0124 410.016C37.8666 425.261 31.9543 443.567 31.9543 463.251H32.9543ZM128.163 558.46C75.5806 558.46 32.9543 515.833 32.9543 463.251H31.9543C31.9543 516.386 75.0283 559.46 128.163 559.46V558.46ZM179.93 543.17C165.028 552.842 147.252 558.46 128.163 558.46V559.46C147.451 559.46 165.416 553.783 180.474 544.009L179.93 543.17ZM296.733 584.7C255.581 577.813 216.239 563.669 180.451 543.155L179.953 544.023C215.844 564.595 255.298 578.78 296.568 585.686L296.733 584.7ZM505.73 555.141C440.766 586.267 367.781 596.589 296.733 584.7L296.568 585.686C367.819 597.609 441.012 587.257 506.162 556.043L505.73 555.141ZM659.724 410.784C624.471 473.604 570.693 524.016 505.73 555.141L506.162 556.043C571.311 524.829 625.242 474.272 660.596 411.273L659.724 410.784ZM702.904 206.119C709.708 277.131 694.651 348.545 659.724 410.784L660.596 411.273C695.622 348.857 710.723 277.239 703.9 206.024L702.904 206.119ZM701.266 204.779C702.091 204.696 702.825 205.297 702.904 206.119L703.9 206.024C703.768 204.647 702.538 203.645 701.165 203.785L701.266 204.779ZM638.992 211.105L701.266 204.779L701.165 203.785L638.891 210.11L638.992 211.105ZM637.644 212.754C637.566 211.925 638.169 211.189 638.992 211.105L638.891 210.11C637.516 210.25 636.519 211.478 636.649 212.848L637.644 212.754ZM602.521 378.683C630.839 328.219 643.083 270.332 637.644 212.754L636.649 212.848C642.069 270.224 629.868 327.907 601.648 378.193L602.521 378.683ZM477.387 495.986C530.176 470.693 573.875 429.729 602.521 378.683L601.648 378.193C573.103 429.06 529.558 469.881 476.955 495.084L477.387 495.986ZM307.56 520.004C365.292 529.665 424.598 521.278 477.387 495.986L476.955 495.084C424.352 520.287 365.254 528.645 307.725 519.018L307.56 520.004ZM219.954 490.066C247.167 504.679 276.738 514.847 307.56 520.004L307.725 519.018C277.012 513.878 247.545 503.746 220.428 489.185L219.954 490.066ZM223.371 463.251C223.371 472.352 222.094 481.154 219.71 489.488L220.672 489.763C223.081 481.341 224.371 472.446 224.371 463.251H223.371ZM128.163 368.043C180.745 368.043 223.371 410.669 223.371 463.251H224.371C224.371 410.117 181.297 367.043 128.163 367.043V368.043ZM102.979 371.409C111 369.215 119.444 368.043 128.163 368.043V367.043C119.354 367.043 110.822 368.227 102.716 370.444L102.979 371.409ZM74.6784 290.352C79.8294 318.697 89.2231 345.919 102.404 371.158L103.291 370.695C90.1559 345.545 80.7952 318.418 75.6622 290.173L74.6784 290.352ZM96.3238 120.206C71.7712 173.342 64.2122 232.76 74.6784 290.352L75.6622 290.173C65.2329 232.784 72.7653 173.575 97.2316 120.625L96.3238 120.206ZM211.868 -6.55328C161.227 22.8026 120.876 67.0691 96.3238 120.206L97.2316 120.625C121.698 67.6754 161.906 23.5645 212.37 -5.68812L211.868 -6.55328ZM377.29 -43.9902C319.641 -48.6249 261.931 -35.5739 211.868 -6.55328L212.37 -5.68812C262.257 -34.6067 319.764 -47.6118 377.21 -42.9934L377.29 -43.9902ZM378.92 -45.3604C378.848 -44.5363 378.12 -43.9235 377.29 -43.9902L377.21 -42.9934C378.582 -42.8831 379.796 -43.8966 379.916 -45.2732L378.92 -45.3604ZM384.376 -107.717L378.92 -45.3604L379.916 -45.2732L385.372 -107.63L384.376 -107.717ZM155.506 441.291C134.415 420.493 116.844 396.646 103.291 370.695L102.404 371.158C116.005 397.201 133.638 421.131 154.804 442.003L155.506 441.291ZM220.428 489.185C196.751 476.472 174.866 460.382 155.506 441.291L154.804 442.003C174.232 461.162 196.194 477.308 219.954 490.066L220.428 489.185ZM180.474 544.009C199.716 531.519 214.214 512.34 220.672 489.763L219.71 489.488C213.32 511.828 198.973 530.809 179.93 543.17L180.474 544.009ZM108.044 489.421C129.688 510.764 153.881 529.079 179.953 544.023L180.451 543.155C154.452 528.254 130.328 509.991 108.746 488.709L108.044 489.421ZM47.992 410.537C64.0833 439.374 84.2561 465.962 108.044 489.421L108.746 488.709C85.0261 465.317 64.9107 438.804 48.8652 410.05L47.992 410.537ZM102.716 370.444C80.0422 376.647 60.711 390.935 48.0124 410.016L48.8449 410.57C61.4126 391.686 80.5439 377.546 102.979 371.409L102.716 370.444ZM558.852 161.116C568.164 146.835 573.576 129.778 573.576 111.458H572.576C572.576 129.578 567.224 146.446 558.014 160.57L558.852 161.116ZM558.9 160.663C547.954 132.286 531.156 106.335 509.41 84.5894L508.703 85.2966C530.349 106.943 547.071 132.775 557.967 161.023L558.9 160.663ZM509.41 84.5895C487.664 62.8438 461.714 46.0453 433.336 35.0997L432.976 36.0327C461.224 46.9283 487.056 63.6502 508.703 85.2966L509.41 84.5895ZM482.541 20.4229C464.221 20.4229 447.164 25.8348 432.883 35.1474L433.429 35.985C447.553 26.7752 464.421 21.4229 482.541 21.4229V20.4229ZM573.576 111.458C573.576 61.1806 532.819 20.4229 482.541 20.4229V21.4229C532.266 21.4229 572.576 61.7329 572.576 111.458H573.576ZM392.839 98.6796C417.278 105.333 439.66 118.262 457.699 136.301L458.406 135.593C440.244 117.431 417.708 104.414 393.102 97.7147L392.839 98.6796ZM457.699 136.301C475.737 154.339 488.666 176.721 495.32 201.16L496.285 200.897C489.585 176.291 476.568 153.756 458.406 135.593L457.699 136.301ZM482.541 202.493C487.07 202.493 491.523 202.162 495.875 201.523L495.73 200.534C491.425 201.166 487.022 201.493 482.541 201.493V202.493ZM391.506 111.458C391.506 161.735 432.264 202.493 482.541 202.493V201.493C432.816 201.493 392.506 161.183 392.506 111.458H391.506ZM392.476 98.1246C391.837 102.477 391.506 106.929 391.506 111.458H392.506C392.506 106.978 392.834 102.574 393.465 98.2698L392.476 98.1246ZM432.883 35.1474C411.504 49.0878 396.344 71.77 392.476 98.1246L393.465 98.2698C397.29 72.2077 412.283 49.7737 433.429 35.985L432.883 35.1474ZM433.336 35.0997C419.022 29.5788 404.091 25.547 388.77 23.1204L388.614 24.1081C403.864 26.5236 418.727 30.537 432.976 36.0327L433.336 35.0997ZM388.77 23.1204C343.075 15.8831 296.262 23.2976 255.04 44.3013L255.494 45.1923C296.528 24.2845 343.127 16.9038 388.614 24.1081L388.77 23.1204ZM255.04 44.3013C213.818 65.305 180.303 98.8196 159.3 140.042L160.191 140.496C181.098 99.4617 214.46 66.1001 255.494 45.1923L255.04 44.3013ZM159.3 140.042C138.599 180.668 131.099 226.725 137.814 271.79L138.803 271.642C132.118 226.783 139.585 180.936 160.191 140.496L159.3 140.042ZM137.814 271.79C138.018 273.16 139.303 274.091 140.666 273.875L140.51 272.887C139.691 273.017 138.925 272.457 138.803 271.642L137.814 271.79ZM140.666 273.875L207.958 263.217L207.802 262.229L140.51 272.887L140.666 273.875ZM207.958 263.217C209.324 263 210.247 261.72 210.051 260.361L209.061 260.504C209.18 261.331 208.618 262.1 207.802 262.229L207.958 263.217ZM210.051 260.361C205.745 230.546 210.769 200.111 224.459 173.242L223.568 172.788C209.784 199.841 204.726 230.485 209.061 260.504L210.051 260.361ZM224.459 173.242C238.452 145.78 260.779 123.453 288.24 109.461L287.786 108.57C260.137 122.658 237.657 145.138 223.568 172.788L224.459 173.242ZM288.24 109.461C315.702 95.4686 346.888 90.5291 377.33 95.3506L377.486 94.3629C346.836 89.5084 315.436 94.4817 287.786 108.57L288.24 109.461ZM377.33 95.3506C382.575 96.1813 387.752 97.2945 392.839 98.6796L393.102 97.7147C387.98 96.3202 382.768 95.1993 377.486 94.3629L377.33 95.3506ZM495.32 201.16C496.705 206.247 497.818 211.424 498.649 216.669L499.637 216.513C498.8 211.232 497.679 206.02 496.285 200.897L495.32 201.16ZM498.649 216.669C503.47 247.111 498.531 278.297 484.539 305.759L485.43 306.213C499.518 278.563 504.491 247.163 499.637 216.513L498.649 216.669ZM484.539 305.759C470.546 333.221 448.219 355.548 420.757 369.54L421.211 370.431C448.861 356.343 471.341 333.863 485.43 306.213L484.539 305.759ZM420.757 369.54C393.888 383.231 363.453 388.255 333.639 383.949L333.496 384.939C363.515 389.274 394.158 384.215 421.211 370.431L420.757 369.54ZM333.639 383.949C332.28 383.753 330.999 384.676 330.783 386.042L331.771 386.198C331.9 385.382 332.669 384.819 333.496 384.939L333.639 383.949ZM330.783 386.042L320.125 453.333L321.113 453.49L331.771 386.198L330.783 386.042ZM320.125 453.333C319.909 454.696 320.84 455.981 322.21 456.185L322.357 455.196C321.542 455.075 320.983 454.309 321.113 453.49L320.125 453.333ZM322.21 456.185C367.275 462.901 413.332 455.4 453.958 434.7L453.504 433.809C413.063 454.414 367.217 461.881 322.357 455.196L322.21 456.185ZM453.958 434.7C495.18 413.696 528.695 380.182 549.698 338.96L548.807 338.506C527.899 379.539 494.538 412.901 453.504 433.809L453.958 434.7ZM549.698 338.96C570.702 297.737 578.116 250.924 570.879 205.229L569.891 205.386C577.096 250.872 569.715 297.472 548.807 338.506L549.698 338.96ZM570.879 205.229C568.452 189.909 564.421 174.977 558.9 160.663L557.967 161.023C563.462 175.272 567.476 190.135 569.891 205.386L570.879 205.229ZM495.875 201.523C522.229 197.655 544.912 182.495 558.852 161.116L558.014 160.57C544.226 181.716 521.792 196.709 495.73 200.534L495.875 201.523Z" fill="#FAFAFA" mask="url(#path-1-inside-1_0_213)"/>
</g>
<mask id="path-3-inside-2_0_213" fill="white">
<path fill-rule="evenodd" clip-rule="evenodd" d="M384.874 -107.674C384.97 -108.774 384.155 -109.745 383.054 -109.835C311.853 -115.655 240.554 -99.5789 178.721 -63.7354C116.31 -27.5574 66.5828 26.9966 36.3243 92.482C6.06576 157.967 -3.24991 231.194 9.64853 302.17C16.5818 340.322 29.7522 376.824 48.4286 410.293C38.3358 425.459 32.4543 443.668 32.4543 463.251C32.4543 516.11 75.3044 558.96 128.163 558.96C147.352 558.96 165.222 553.312 180.202 543.589C216.042 564.132 255.439 578.296 296.651 585.193C367.8 597.099 440.889 586.762 505.946 555.592C571.002 524.422 624.857 473.938 660.16 411.029C695.137 348.701 710.216 277.185 703.402 206.071C703.297 204.972 702.315 204.17 701.216 204.282L638.941 210.608C637.842 210.719 637.043 211.701 637.147 212.801C642.576 270.278 630.354 328.063 602.085 378.438C573.489 429.395 529.867 470.287 477.171 495.535C424.475 520.782 365.273 529.155 307.642 519.511C276.875 514.362 247.356 504.213 220.191 489.626C222.588 481.248 223.871 472.399 223.871 463.251C223.871 410.393 181.021 367.543 128.163 367.543C119.399 367.543 110.911 368.721 102.847 370.927C89.6895 345.732 80.3123 318.557 75.1703 290.263C64.7226 232.772 72.2683 173.459 96.7777 120.415C121.287 67.3722 161.566 23.1835 212.119 -6.1207C262.094 -35.0903 319.703 -48.1183 377.25 -43.4918C378.351 -43.4033 379.322 -44.2165 379.418 -45.3168L384.874 -107.674ZM102.847 370.927C116.424 396.923 134.027 420.812 155.155 441.647C174.549 460.772 196.473 476.89 220.191 489.626C213.767 512.084 199.344 531.164 180.202 543.589C154.166 528.666 130.008 510.378 108.395 489.065C84.6411 465.64 64.497 439.089 48.4286 410.293C61.0618 391.311 80.2931 377.097 102.847 370.927ZM573.076 111.458C573.076 129.678 567.694 146.641 558.433 160.843C547.512 132.53 530.752 106.639 509.056 84.943C487.36 63.247 461.469 46.4868 433.156 35.5662C447.358 26.305 464.321 20.9229 482.541 20.9229C532.542 20.9229 573.076 61.4567 573.076 111.458ZM392.971 98.1972C417.493 104.874 439.952 117.847 458.052 135.947C476.153 154.047 489.126 176.506 495.802 201.029C491.474 201.664 487.046 201.993 482.541 201.993C432.54 201.993 392.006 161.459 392.006 111.458C392.006 106.953 392.335 102.525 392.971 98.1972ZM392.971 98.1972C396.817 71.9888 411.893 49.4307 433.156 35.5662C418.875 30.0579 403.978 26.0353 388.692 23.6143C343.101 16.3934 296.395 23.791 255.267 44.7468C214.139 65.7026 180.701 99.1407 159.745 140.269C139.092 180.802 131.608 226.754 138.309 271.716C138.472 272.809 139.497 273.554 140.588 273.381L207.88 262.723C208.971 262.55 209.714 261.525 209.556 260.432C205.235 230.516 210.276 199.976 224.014 173.015C238.054 145.459 260.458 123.056 288.013 109.016C315.569 94.9752 346.862 90.0188 377.408 94.8568C382.671 95.6903 387.866 96.8073 392.971 98.1972ZM495.802 201.029C497.192 206.134 498.309 211.328 499.143 216.591C503.981 247.137 499.024 278.43 484.984 305.986C470.944 333.542 448.54 355.945 420.984 369.986C394.023 383.723 363.484 388.764 333.568 384.444C332.474 384.286 331.45 385.029 331.277 386.12L320.619 453.411C320.446 454.502 321.191 455.528 322.284 455.691C367.246 462.391 413.197 454.907 453.731 434.254C494.859 413.299 528.297 379.861 549.253 338.733C570.208 297.605 577.606 250.898 570.385 205.307C567.964 190.022 563.941 175.124 558.433 160.843C544.569 182.106 522.011 197.182 495.802 201.029Z"/>
</mask>
<path d="M383.054 -109.835L383.013 -109.336L383.054 -109.835ZM384.874 -107.674L384.376 -107.717V-107.717L384.874 -107.674ZM178.721 -63.7354L178.47 -64.168L178.721 -63.7354ZM36.3243 92.482L36.7782 92.6917L36.3243 92.482ZM9.64853 302.17L9.15659 302.259L9.64853 302.17ZM296.651 585.193L296.568 585.686L296.651 585.193ZM505.946 555.592L506.162 556.043L505.946 555.592ZM660.16 411.029L659.724 410.784L660.16 411.029ZM703.402 206.071L702.904 206.119L703.402 206.071ZM701.216 204.282L701.266 204.779L701.216 204.282ZM638.941 210.608L638.992 211.105L638.941 210.608ZM637.147 212.801L637.644 212.754L637.147 212.801ZM602.085 378.438L601.648 378.193L602.085 378.438ZM477.171 495.535L477.387 495.986L477.171 495.535ZM307.642 519.511L307.56 520.004L307.642 519.511ZM75.1703 290.263L74.6784 290.352L75.1703 290.263ZM96.7777 120.415L97.2316 120.625L96.7777 120.415ZM212.119 -6.1207L212.37 -5.68812L212.119 -6.1207ZM377.25 -43.4918L377.21 -42.9934L377.25 -43.4918ZM379.418 -45.3168L379.916 -45.2732V-45.2732L379.418 -45.3168ZM155.155 441.647L155.506 441.291L155.155 441.647ZM108.395 489.065L108.044 489.421L108.395 489.065ZM509.056 84.943L508.703 85.2966L509.056 84.943ZM458.052 135.947L457.699 136.301L458.052 135.947ZM388.692 23.6143L388.77 23.1204L388.692 23.6143ZM255.267 44.7468L255.04 44.3013L255.267 44.7468ZM159.745 140.269L160.191 140.496L159.745 140.269ZM138.309 271.716L138.803 271.642L138.309 271.716ZM140.588 273.381L140.666 273.875L140.588 273.381ZM207.88 262.723L207.802 262.229L207.88 262.723ZM209.556 260.432L210.051 260.361L209.556 260.432ZM224.014 173.015L224.459 173.242L224.014 173.015ZM288.013 109.016L288.24 109.461L288.013 109.016ZM377.408 94.8568L377.33 95.3506L377.408 94.8568ZM499.143 216.591L499.637 216.513L499.143 216.591ZM484.984 305.986L485.43 306.213L484.984 305.986ZM420.984 369.986L420.757 369.54L420.984 369.986ZM333.568 384.444L333.496 384.939L333.568 384.444ZM331.277 386.12L330.783 386.042L331.277 386.12ZM320.619 453.411L321.113 453.49L320.619 453.411ZM322.284 455.691L322.357 455.196L322.284 455.691ZM453.731 434.254L453.504 433.809L453.731 434.254ZM549.253 338.733L548.807 338.506L549.253 338.733ZM570.385 205.307L569.891 205.386L570.385 205.307ZM383.013 -109.336C383.837 -109.269 384.448 -108.543 384.376 -107.717L385.372 -107.63C385.492 -109.005 384.474 -110.22 383.095 -110.333L383.013 -109.336ZM178.971 -63.3028C240.717 -99.0952 311.913 -115.148 383.013 -109.336L383.095 -110.333C311.792 -116.161 240.391 -100.063 178.47 -64.168L178.971 -63.3028ZM36.7782 92.6917C66.9936 27.2998 116.65 -27.1764 178.971 -63.3028L178.47 -64.168C115.97 -27.9383 66.1721 26.6935 35.8704 92.2723L36.7782 92.6917ZM10.1405 302.081C-2.73956 231.206 6.56281 158.084 36.7782 92.6917L35.8704 92.2723C5.56871 157.851 -3.76025 231.182 9.15659 302.259L10.1405 302.081ZM48.8652 410.05C30.2154 376.628 17.0639 340.178 10.1405 302.081L9.15659 302.259C16.0998 340.465 29.2889 377.02 47.992 410.537L48.8652 410.05ZM32.9543 463.251C32.9543 443.77 38.8049 425.656 48.8449 410.57L48.0124 410.016C37.8666 425.261 31.9543 443.567 31.9543 463.251H32.9543ZM128.163 558.46C75.5806 558.46 32.9543 515.833 32.9543 463.251H31.9543C31.9543 516.386 75.0283 559.46 128.163 559.46V558.46ZM179.93 543.17C165.028 552.842 147.252 558.46 128.163 558.46V559.46C147.451 559.46 165.416 553.783 180.474 544.009L179.93 543.17ZM296.733 584.7C255.581 577.813 216.239 563.669 180.451 543.155L179.953 544.023C215.844 564.595 255.298 578.78 296.568 585.686L296.733 584.7ZM505.73 555.141C440.766 586.267 367.781 596.589 296.733 584.7L296.568 585.686C367.819 597.609 441.012 587.257 506.162 556.043L505.73 555.141ZM659.724 410.784C624.471 473.604 570.693 524.016 505.73 555.141L506.162 556.043C571.311 524.829 625.242 474.272 660.596 411.273L659.724 410.784ZM702.904 206.119C709.708 277.131 694.651 348.545 659.724 410.784L660.596 411.273C695.622 348.857 710.723 277.239 703.9 206.024L702.904 206.119ZM701.266 204.779C702.091 204.696 702.825 205.297 702.904 206.119L703.9 206.024C703.768 204.647 702.538 203.645 701.165 203.785L701.266 204.779ZM638.992 211.105L701.266 204.779L701.165 203.785L638.891 210.11L638.992 211.105ZM637.644 212.754C637.566 211.925 638.169 211.189 638.992 211.105L638.891 210.11C637.516 210.25 636.519 211.478 636.649 212.848L637.644 212.754ZM602.521 378.683C630.839 328.219 643.083 270.332 637.644 212.754L636.649 212.848C642.069 270.224 629.868 327.907 601.648 378.193L602.521 378.683ZM477.387 495.986C530.176 470.693 573.875 429.729 602.521 378.683L601.648 378.193C573.103 429.06 529.558 469.881 476.955 495.084L477.387 495.986ZM307.56 520.004C365.292 529.665 424.598 521.278 477.387 495.986L476.955 495.084C424.352 520.287 365.254 528.645 307.725 519.018L307.56 520.004ZM219.954 490.066C247.167 504.679 276.738 514.847 307.56 520.004L307.725 519.018C277.012 513.878 247.545 503.746 220.428 489.185L219.954 490.066ZM223.371 463.251C223.371 472.352 222.094 481.154 219.71 489.488L220.672 489.763C223.081 481.341 224.371 472.446 224.371 463.251H223.371ZM128.163 368.043C180.745 368.043 223.371 410.669 223.371 463.251H224.371C224.371 410.117 181.297 367.043 128.163 367.043V368.043ZM102.979 371.409C111 369.215 119.444 368.043 128.163 368.043V367.043C119.354 367.043 110.822 368.227 102.716 370.444L102.979 371.409ZM74.6784 290.352C79.8294 318.697 89.2231 345.919 102.404 371.158L103.291 370.695C90.1559 345.545 80.7952 318.418 75.6622 290.173L74.6784 290.352ZM96.3238 120.206C71.7712 173.342 64.2122 232.76 74.6784 290.352L75.6622 290.173C65.2329 232.784 72.7653 173.575 97.2316 120.625L96.3238 120.206ZM211.868 -6.55328C161.227 22.8026 120.876 67.0691 96.3238 120.206L97.2316 120.625C121.698 67.6754 161.906 23.5645 212.37 -5.68812L211.868 -6.55328ZM377.29 -43.9902C319.641 -48.6249 261.931 -35.5739 211.868 -6.55328L212.37 -5.68812C262.257 -34.6067 319.764 -47.6118 377.21 -42.9934L377.29 -43.9902ZM378.92 -45.3604C378.848 -44.5363 378.12 -43.9235 377.29 -43.9902L377.21 -42.9934C378.582 -42.8831 379.796 -43.8966 379.916 -45.2732L378.92 -45.3604ZM384.376 -107.717L378.92 -45.3604L379.916 -45.2732L385.372 -107.63L384.376 -107.717ZM155.506 441.291C134.415 420.493 116.844 396.646 103.291 370.695L102.404 371.158C116.005 397.201 133.638 421.131 154.804 442.003L155.506 441.291ZM220.428 489.185C196.751 476.472 174.866 460.382 155.506 441.291L154.804 442.003C174.232 461.162 196.194 477.308 219.954 490.066L220.428 489.185ZM180.474 544.009C199.716 531.519 214.214 512.34 220.672 489.763L219.71 489.488C213.32 511.828 198.973 530.809 179.93 543.17L180.474 544.009ZM108.044 489.421C129.688 510.764 153.881 529.079 179.953 544.023L180.451 543.155C154.452 528.254 130.328 509.991 108.746 488.709L108.044 489.421ZM47.992 410.537C64.0833 439.374 84.2561 465.962 108.044 489.421L108.746 488.709C85.0261 465.317 64.9107 438.804 48.8652 410.05L47.992 410.537ZM102.716 370.444C80.0422 376.647 60.711 390.935 48.0124 410.016L48.8449 410.57C61.4126 391.686 80.5439 377.546 102.979 371.409L102.716 370.444ZM558.852 161.116C568.164 146.835 573.576 129.778 573.576 111.458H572.576C572.576 129.578 567.224 146.446 558.014 160.57L558.852 161.116ZM558.9 160.663C547.954 132.286 531.156 106.335 509.41 84.5894L508.703 85.2966C530.349 106.943 547.071 132.775 557.967 161.023L558.9 160.663ZM509.41 84.5895C487.664 62.8438 461.714 46.0453 433.336 35.0997L432.976 36.0327C461.224 46.9283 487.056 63.6502 508.703 85.2966L509.41 84.5895ZM482.541 20.4229C464.221 20.4229 447.164 25.8348 432.883 35.1474L433.429 35.985C447.553 26.7752 464.421 21.4229 482.541 21.4229V20.4229ZM573.576 111.458C573.576 61.1806 532.819 20.4229 482.541 20.4229V21.4229C532.266 21.4229 572.576 61.7329 572.576 111.458H573.576ZM392.839 98.6796C417.278 105.333 439.66 118.262 457.699 136.301L458.406 135.593C440.244 117.431 417.708 104.414 393.102 97.7147L392.839 98.6796ZM457.699 136.301C475.737 154.339 488.666 176.721 495.32 201.16L496.285 200.897C489.585 176.291 476.568 153.756 458.406 135.593L457.699 136.301ZM482.541 202.493C487.07 202.493 491.523 202.162 495.875 201.523L495.73 200.534C491.425 201.166 487.022 201.493 482.541 201.493V202.493ZM391.506 111.458C391.506 161.735 432.264 202.493 482.541 202.493V201.493C432.816 201.493 392.506 161.183 392.506 111.458H391.506ZM392.476 98.1246C391.837 102.477 391.506 106.929 391.506 111.458H392.506C392.506 106.978 392.834 102.574 393.465 98.2698L392.476 98.1246ZM432.883 35.1474C411.504 49.0878 396.344 71.77 392.476 98.1246L393.465 98.2698C397.29 72.2077 412.283 49.7737 433.429 35.985L432.883 35.1474ZM433.336 35.0997C419.022 29.5788 404.091 25.547 388.77 23.1204L388.614 24.1081C403.864 26.5236 418.727 30.537 432.976 36.0327L433.336 35.0997ZM388.77 23.1204C343.075 15.8831 296.262 23.2976 255.04 44.3013L255.494 45.1923C296.528 24.2845 343.127 16.9038 388.614 24.1081L388.77 23.1204ZM255.04 44.3013C213.818 65.305 180.303 98.8196 159.3 140.042L160.191 140.496C181.098 99.4617 214.46 66.1001 255.494 45.1923L255.04 44.3013ZM159.3 140.042C138.599 180.668 131.099 226.725 137.814 271.79L138.803 271.642C132.118 226.783 139.585 180.936 160.191 140.496L159.3 140.042ZM137.814 271.79C138.018 273.16 139.303 274.091 140.666 273.875L140.51 272.887C139.691 273.017 138.925 272.457 138.803 271.642L137.814 271.79ZM140.666 273.875L207.958 263.217L207.802 262.229L140.51 272.887L140.666 273.875ZM207.958 263.217C209.324 263 210.247 261.72 210.051 260.361L209.061 260.504C209.18 261.331 208.618 262.1 207.802 262.229L207.958 263.217ZM210.051 260.361C205.745 230.546 210.769 200.111 224.459 173.242L223.568 172.788C209.784 199.841 204.726 230.485 209.061 260.504L210.051 260.361ZM224.459 173.242C238.452 145.78 260.779 123.453 288.24 109.461L287.786 108.57C260.137 122.658 237.657 145.138 223.568 172.788L224.459 173.242ZM288.24 109.461C315.702 95.4686 346.888 90.5291 377.33 95.3506L377.486 94.3629C346.836 89.5084 315.436 94.4817 287.786 108.57L288.24 109.461ZM377.33 95.3506C382.575 96.1813 387.752 97.2945 392.839 98.6796L393.102 97.7147C387.98 96.3202 382.768 95.1993 377.486 94.3629L377.33 95.3506ZM495.32 201.16C496.705 206.247 497.818 211.424 498.649 216.669L499.637 216.513C498.8 211.232 497.679 206.02 496.285 200.897L495.32 201.16ZM498.649 216.669C503.47 247.111 498.531 278.297 484.539 305.759L485.43 306.213C499.518 278.563 504.491 247.163 499.637 216.513L498.649 216.669ZM484.539 305.759C470.546 333.221 448.219 355.548 420.757 369.54L421.211 370.431C448.861 356.343 471.341 333.863 485.43 306.213L484.539 305.759ZM420.757 369.54C393.888 383.231 363.453 388.255 333.639 383.949L333.496 384.939C363.515 389.274 394.158 384.215 421.211 370.431L420.757 369.54ZM333.639 383.949C332.28 383.753 330.999 384.676 330.783 386.042L331.771 386.198C331.9 385.382 332.669 384.819 333.496 384.939L333.639 383.949ZM330.783 386.042L320.125 453.333L321.113 453.49L331.771 386.198L330.783 386.042ZM320.125 453.333C319.909 454.696 320.84 455.981 322.21 456.185L322.357 455.196C321.542 455.075 320.983 454.309 321.113 453.49L320.125 453.333ZM322.21 456.185C367.275 462.901 413.332 455.4 453.958 434.7L453.504 433.809C413.063 454.414 367.217 461.881 322.357 455.196L322.21 456.185ZM453.958 434.7C495.18 413.696 528.695 380.182 549.698 338.96L548.807 338.506C527.899 379.539 494.538 412.901 453.504 433.809L453.958 434.7ZM549.698 338.96C570.702 297.737 578.116 250.924 570.879 205.229L569.891 205.386C577.096 250.872 569.715 297.472 548.807 338.506L549.698 338.96ZM570.879 205.229C568.452 189.909 564.421 174.977 558.9 160.663L557.967 161.023C563.462 175.272 567.476 190.135 569.891 205.386L570.879 205.229ZM495.875 201.523C522.229 197.655 544.912 182.495 558.852 161.116L558.014 160.57C544.226 181.716 521.792 196.709 495.73 200.534L495.875 201.523Z" fill="#FAFAFA" mask="url(#path-3-inside-2_0_213)"/>
<defs>
<filter id="filter0_f_0_213" x="0" y="-115" width="709" height="709" filterUnits="userSpaceOnUse" color-interpolation-filters="sRGB">
<feFlood flood-opacity="0" result="BackgroundImageFix"/>
<feBlend mode="normal" in="SourceGraphic" in2="BackgroundImageFix" result="shape"/>
<feGaussianBlur stdDeviation="2" result="effect1_foregroundBlur_0_213"/>
</filter>
</defs>
</svg>
