<svg width="395" height="709" viewBox="0 0 395 709" fill="none" xmlns="http://www.w3.org/2000/svg">
<g filter="url(#filter0_f_0_86)">
<mask id="path-1-inside-1_0_86" fill="white">
<path fill-rule="evenodd" clip-rule="evenodd" d="M70.8739 7.32643C70.9702 6.22607 70.1552 5.25532 69.0542 5.16533C-2.14743 -0.654832 -73.446 15.4211 -135.279 51.2646C-197.69 87.4426 -247.417 141.997 -277.676 207.482C-307.934 272.967 -317.25 346.194 -304.351 417.17C-297.418 455.322 -284.248 491.824 -265.571 525.293C-275.664 540.459 -281.546 558.668 -281.546 578.251C-281.546 631.11 -238.696 673.96 -185.837 673.96C-166.648 673.96 -148.778 668.312 -133.798 658.589C-97.9581 679.132 -58.5607 693.296 -17.3493 700.193C53.7995 712.099 126.889 701.762 191.946 670.592C257.002 639.422 310.857 588.938 346.16 526.029C381.137 463.701 396.216 392.185 389.402 321.071C389.297 319.972 388.315 319.17 387.216 319.282L324.941 325.608C323.842 325.719 323.043 326.701 323.147 327.801C328.576 385.278 316.354 443.063 288.085 493.438C259.489 544.395 215.867 585.287 163.171 610.535C110.475 635.782 51.2726 644.155 -6.35797 634.511C-37.1251 629.362 -66.644 619.213 -93.809 604.626C-91.4123 596.248 -90.1289 587.399 -90.1289 578.251C-90.1289 525.393 -132.979 482.543 -185.837 482.543C-194.601 482.543 -203.089 483.721 -211.153 485.927C-224.31 460.732 -233.688 433.557 -238.83 405.263C-249.277 347.772 -241.732 288.459 -217.222 235.415C-192.713 182.372 -152.434 138.184 -101.881 108.879C-51.9059 79.9097 5.7027 66.8817 63.2501 71.5082C64.3511 71.5967 65.3221 70.7835 65.4183 69.6832L70.8739 7.32643ZM-211.153 485.927C-197.576 511.923 -179.973 535.812 -158.845 556.647C-139.451 575.772 -117.527 591.89 -93.809 604.626C-100.233 627.084 -114.656 646.164 -133.798 658.589C-159.834 643.666 -183.992 625.378 -205.605 604.065C-229.359 580.64 -249.503 554.089 -265.571 525.293C-252.938 506.311 -233.707 492.097 -211.153 485.927ZM259.076 226.458C259.076 244.678 253.694 261.641 244.433 275.843C233.512 247.53 216.752 221.639 195.056 199.943C173.36 178.247 147.469 161.487 119.156 150.566C133.358 141.305 150.321 135.923 168.541 135.923C218.542 135.923 259.076 176.457 259.076 226.458ZM78.9706 213.197C103.493 219.874 125.952 232.847 144.052 250.947C162.153 269.047 175.126 291.506 181.802 316.029C177.474 316.664 173.046 316.993 168.541 316.993C118.54 316.993 78.0063 276.459 78.0063 226.458C78.0063 221.953 78.3353 217.525 78.9706 213.197ZM78.9706 213.197C82.8172 186.989 97.8933 164.431 119.156 150.566C104.875 145.058 89.9775 141.035 74.6919 138.614C29.1012 131.393 -17.6052 138.791 -58.7332 159.747C-99.8611 180.703 -133.299 214.141 -154.255 255.269C-174.908 295.802 -182.392 341.754 -175.691 386.716C-175.528 387.809 -174.503 388.554 -173.412 388.381L-106.12 377.723C-105.029 377.55 -104.286 376.525 -104.444 375.432C-108.765 345.516 -103.724 314.976 -89.9862 288.015C-75.9458 260.459 -53.5423 238.056 -25.9866 224.016C1.56915 209.975 32.8624 205.019 63.4082 209.857C68.6713 210.69 73.8657 211.807 78.9706 213.197ZM181.802 316.029C183.192 321.134 184.309 326.328 185.143 331.591C189.981 362.137 185.024 393.43 170.984 420.986C156.944 448.542 134.54 470.945 106.984 484.986C80.0231 498.723 49.4839 503.764 19.5676 499.444C18.4743 499.286 17.4495 500.029 17.2767 501.12L6.61877 568.411C6.44598 569.502 7.19104 570.528 8.28354 570.691C53.2457 577.391 99.1975 569.907 139.731 549.254C180.859 528.299 214.297 494.861 235.253 453.733C256.208 412.605 263.606 365.898 256.385 320.307C253.964 305.022 249.941 290.124 244.433 275.843C230.569 297.106 208.011 312.182 181.802 316.029Z"/>
</mask>
<path d="M69.0542 5.16533L69.0135 5.66367L69.0542 5.16533ZM70.8739 7.32643L70.3758 7.28285V7.28286L70.8739 7.32643ZM-135.279 51.2646L-135.53 50.832L-135.279 51.2646ZM-277.676 207.482L-277.222 207.692L-277.676 207.482ZM-304.351 417.17L-304.843 417.259L-304.351 417.17ZM-17.3493 700.193L-17.4319 700.686L-17.3493 700.193ZM191.946 670.592L192.162 671.043L191.946 670.592ZM346.16 526.029L345.724 525.784L346.16 526.029ZM389.402 321.071L388.904 321.119L389.402 321.071ZM387.216 319.282L387.266 319.779L387.216 319.282ZM324.941 325.608L324.992 326.105L324.941 325.608ZM323.147 327.801L323.644 327.754L323.147 327.801ZM288.085 493.438L287.648 493.193L288.085 493.438ZM163.171 610.535L163.387 610.986L163.171 610.535ZM-6.35797 634.511L-6.44049 635.004L-6.35797 634.511ZM-238.83 405.263L-239.322 405.352L-238.83 405.263ZM-217.222 235.415L-216.768 235.625L-217.222 235.415ZM-101.881 108.879L-101.63 109.312L-101.881 108.879ZM63.2501 71.5082L63.21 72.0066L63.2501 71.5082ZM65.4183 69.6832L65.9164 69.7268V69.7268L65.4183 69.6832ZM-158.845 556.647L-158.494 556.291L-158.845 556.647ZM-205.605 604.065L-205.956 604.421L-205.605 604.065ZM195.056 199.943L194.703 200.297L195.056 199.943ZM144.052 250.947L143.699 251.301L144.052 250.947ZM74.6919 138.614L74.7701 138.12L74.6919 138.614ZM-58.7332 159.747L-58.9602 159.301L-58.7332 159.747ZM-154.255 255.269L-153.809 255.496L-154.255 255.269ZM-175.691 386.716L-175.197 386.642L-175.691 386.716ZM-173.412 388.381L-173.334 388.875L-173.412 388.381ZM-106.12 377.723L-106.198 377.229L-106.12 377.723ZM-104.444 375.432L-103.949 375.361L-104.444 375.432ZM-89.9862 288.015L-89.5406 288.242L-89.9862 288.015ZM-25.9866 224.016L-25.7596 224.461L-25.9866 224.016ZM63.4082 209.857L63.33 210.351L63.4082 209.857ZM185.143 331.591L185.637 331.513L185.143 331.591ZM170.984 420.986L171.43 421.213L170.984 420.986ZM106.984 484.986L106.757 484.54L106.984 484.986ZM19.5676 499.444L19.4961 499.939L19.5676 499.444ZM17.2767 501.12L16.7829 501.042L17.2767 501.12ZM6.61877 568.411L7.11261 568.49L6.61877 568.411ZM8.28354 570.691L8.35724 570.196L8.28354 570.691ZM139.731 549.254L139.504 548.809L139.731 549.254ZM235.253 453.733L234.807 453.506L235.253 453.733ZM256.385 320.307L255.891 320.386L256.385 320.307ZM69.0135 5.66367C69.8366 5.73095 70.448 6.45719 70.3758 7.28285L71.372 7.37002C71.4923 5.99495 70.4737 4.77969 69.095 4.66699L69.0135 5.66367ZM-135.029 51.6972C-73.2835 15.9048 -2.08658 -0.148191 69.0135 5.66367L69.095 4.66699C-2.20828 -1.16147 -73.6086 14.9374 -135.53 50.832L-135.029 51.6972ZM-277.222 207.692C-247.006 142.3 -197.35 87.8236 -135.029 51.6972L-135.53 50.832C-198.03 87.0617 -247.828 141.693 -278.13 207.272L-277.222 207.692ZM-303.86 417.081C-316.74 346.206 -307.437 273.084 -277.222 207.692L-278.13 207.272C-308.431 272.851 -317.76 346.182 -304.843 417.259L-303.86 417.081ZM-265.135 525.05C-283.785 491.628 -296.936 455.178 -303.86 417.081L-304.843 417.259C-297.9 455.465 -284.711 492.02 -266.008 525.537L-265.135 525.05ZM-281.046 578.251C-281.046 558.77 -275.195 540.656 -265.155 525.57L-265.988 525.016C-276.133 540.261 -282.046 558.567 -282.046 578.251H-281.046ZM-185.837 673.46C-238.419 673.46 -281.046 630.833 -281.046 578.251H-282.046C-282.046 631.386 -238.972 674.46 -185.837 674.46V673.46ZM-134.07 658.17C-148.972 667.842 -166.748 673.46 -185.837 673.46V674.46C-166.549 674.46 -148.584 668.783 -133.526 659.009L-134.07 658.17ZM-17.2668 699.7C-58.4194 692.813 -97.7606 678.669 -133.549 658.155L-134.047 659.023C-98.1556 679.595 -58.702 693.78 -17.4319 700.686L-17.2668 699.7ZM191.73 670.141C126.766 701.267 53.7805 711.589 -17.2668 699.7L-17.4319 700.686C53.8185 712.609 127.012 702.257 192.162 671.043L191.73 670.141ZM345.724 525.784C310.471 588.604 256.693 639.016 191.73 670.141L192.162 671.043C257.311 639.829 311.242 589.272 346.596 526.273L345.724 525.784ZM388.904 321.119C395.708 392.131 380.651 463.545 345.724 525.784L346.596 526.273C381.622 463.857 396.723 392.239 389.9 321.024L388.904 321.119ZM387.266 319.779C388.091 319.696 388.825 320.297 388.904 321.119L389.9 321.024C389.768 319.647 388.538 318.645 387.165 318.785L387.266 319.779ZM324.992 326.105L387.266 319.779L387.165 318.785L324.891 325.11L324.992 326.105ZM323.644 327.754C323.566 326.925 324.169 326.189 324.992 326.105L324.891 325.11C323.516 325.25 322.519 326.478 322.649 327.848L323.644 327.754ZM288.521 493.683C316.839 443.219 329.083 385.332 323.644 327.754L322.649 327.848C328.069 385.224 315.868 442.907 287.648 493.193L288.521 493.683ZM163.387 610.986C216.176 585.693 259.875 544.729 288.521 493.683L287.648 493.193C259.103 544.06 215.558 584.881 162.955 610.084L163.387 610.986ZM-6.44049 635.004C51.2916 644.665 110.598 636.278 163.387 610.986L162.955 610.084C110.352 635.287 51.2536 643.645 -6.27545 634.018L-6.44049 635.004ZM-94.0456 605.066C-66.8327 619.679 -37.2618 629.847 -6.44049 635.004L-6.27545 634.018C-36.9884 628.878 -66.4553 618.746 -93.5725 604.185L-94.0456 605.066ZM-90.6289 578.251C-90.6289 587.352 -91.9057 596.154 -94.2897 604.488L-93.3283 604.763C-90.919 596.341 -89.6289 587.446 -89.6289 578.251H-90.6289ZM-185.837 483.043C-133.255 483.043 -90.6289 525.669 -90.6289 578.251H-89.6289C-89.6289 525.117 -132.703 482.043 -185.837 482.043V483.043ZM-211.021 486.409C-203 484.215 -194.556 483.043 -185.837 483.043V482.043C-194.646 482.043 -203.178 483.227 -211.284 485.444L-211.021 486.409ZM-239.322 405.352C-234.171 433.697 -224.777 460.919 -211.596 486.158L-210.709 485.695C-223.844 460.545 -233.205 433.418 -238.338 405.173L-239.322 405.352ZM-217.676 235.206C-242.229 288.342 -249.788 347.76 -239.322 405.352L-238.338 405.173C-248.767 347.784 -241.235 288.575 -216.768 235.625L-217.676 235.206ZM-102.132 108.447C-152.773 137.803 -193.124 182.069 -217.676 235.206L-216.768 235.625C-192.302 182.675 -152.094 138.564 -101.63 109.312L-102.132 108.447ZM63.2901 71.0098C5.64142 66.3751 -52.0687 79.4261 -102.132 108.447L-101.63 109.312C-51.7432 80.3933 5.76398 67.3882 63.21 72.0066L63.2901 71.0098ZM64.9202 69.6396C64.8481 70.4637 64.1199 71.0765 63.2901 71.0098L63.21 72.0066C64.5823 72.1169 65.796 71.1034 65.9164 69.7268L64.9202 69.6396ZM70.3758 7.28286L64.9202 69.6396L65.9164 69.7268L71.372 7.37001L70.3758 7.28286ZM-158.494 556.291C-179.585 535.493 -197.156 511.646 -210.709 485.695L-211.596 486.158C-197.995 512.201 -180.362 536.131 -159.196 557.003L-158.494 556.291ZM-93.5725 604.185C-117.249 591.472 -139.134 575.382 -158.494 556.291L-159.196 557.003C-139.768 576.162 -117.806 592.308 -94.0456 605.066L-93.5725 604.185ZM-133.526 659.009C-114.284 646.519 -99.7864 627.34 -93.3283 604.763L-94.2897 604.488C-100.68 626.828 -115.027 645.809 -134.07 658.17L-133.526 659.009ZM-205.956 604.421C-184.312 625.764 -160.119 644.079 -134.047 659.023L-133.549 658.155C-159.548 643.254 -183.672 624.991 -205.254 603.709L-205.956 604.421ZM-266.008 525.537C-249.917 554.374 -229.744 580.962 -205.956 604.421L-205.254 603.709C-228.974 580.317 -249.089 553.804 -265.135 525.05L-266.008 525.537ZM-211.284 485.444C-233.958 491.647 -253.289 505.935 -265.988 525.016L-265.155 525.57C-252.587 506.686 -233.456 492.546 -211.021 486.409L-211.284 485.444ZM244.852 276.116C254.164 261.835 259.576 244.778 259.576 226.458H258.576C258.576 244.578 253.224 261.446 244.014 275.57L244.852 276.116ZM244.9 275.663C233.954 247.286 217.156 221.335 195.41 199.589L194.703 200.297C216.349 221.943 233.071 247.775 243.967 276.023L244.9 275.663ZM195.41 199.589C173.664 177.844 147.714 161.045 119.336 150.1L118.976 151.033C147.224 161.928 173.056 178.65 194.703 200.297L195.41 199.589ZM168.541 135.423C150.221 135.423 133.164 140.835 118.883 150.147L119.429 150.985C133.553 141.775 150.421 136.423 168.541 136.423V135.423ZM259.576 226.458C259.576 176.181 218.819 135.423 168.541 135.423V136.423C218.266 136.423 258.576 176.733 258.576 226.458H259.576ZM78.8392 213.68C103.278 220.333 125.66 233.262 143.699 251.301L144.406 250.593C126.244 232.431 103.708 219.414 79.1019 212.715L78.8392 213.68ZM143.699 251.301C161.737 269.339 174.666 291.721 181.32 316.16L182.285 315.897C175.585 291.291 162.568 268.756 144.406 250.593L143.699 251.301ZM168.541 317.493C173.07 317.493 177.523 317.162 181.875 316.523L181.73 315.534C177.425 316.166 173.022 316.493 168.541 316.493V317.493ZM77.5063 226.458C77.5063 276.735 118.264 317.493 168.541 317.493V316.493C118.816 316.493 78.5063 276.183 78.5063 226.458H77.5063ZM78.4759 213.125C77.8371 217.477 77.5063 221.929 77.5063 226.458H78.5063C78.5063 221.978 78.8336 217.574 79.4653 213.27L78.4759 213.125ZM118.883 150.147C97.5039 164.088 82.344 186.77 78.4759 213.125L79.4653 213.27C83.2904 187.208 98.2828 164.774 119.429 150.985L118.883 150.147ZM119.336 150.1C105.022 144.579 90.0907 140.547 74.7701 138.12L74.6136 139.108C89.8643 141.524 104.727 145.537 118.976 151.033L119.336 150.1ZM74.7701 138.12C29.0751 130.883 -17.7381 138.298 -58.9602 159.301L-58.5062 160.192C-17.4723 139.284 29.1272 131.904 74.6136 139.108L74.7701 138.12ZM-58.9602 159.301C-100.182 180.305 -133.697 213.82 -154.7 255.042L-153.809 255.496C-132.902 214.462 -99.5401 181.1 -58.5062 160.192L-58.9602 159.301ZM-154.7 255.042C-175.401 295.668 -182.901 341.725 -176.186 386.79L-175.197 386.642C-181.882 341.783 -174.415 295.936 -153.809 255.496L-154.7 255.042ZM-176.186 386.79C-175.982 388.16 -174.697 389.091 -173.334 388.875L-173.49 387.887C-174.309 388.017 -175.075 387.457 -175.197 386.642L-176.186 386.79ZM-173.334 388.875L-106.042 378.217L-106.198 377.229L-173.49 387.887L-173.334 388.875ZM-106.042 378.217C-104.676 378 -103.753 376.72 -103.949 375.361L-104.939 375.504C-104.82 376.331 -105.382 377.1 -106.198 377.229L-106.042 378.217ZM-103.949 375.361C-108.255 345.546 -103.231 315.111 -89.5406 288.242L-90.4317 287.788C-104.216 314.841 -109.274 345.485 -104.939 375.504L-103.949 375.361ZM-89.5406 288.242C-75.5483 260.78 -53.2213 238.453 -25.7596 224.461L-26.2136 223.57C-53.8634 237.658 -76.3434 260.138 -90.4317 287.788L-89.5406 288.242ZM-25.7596 224.461C1.70206 210.469 32.8885 205.529 63.33 210.351L63.4864 209.363C32.8364 204.508 1.43625 209.482 -26.2136 223.57L-25.7596 224.461ZM63.33 210.351C68.5751 211.181 73.7517 212.295 78.8392 213.68L79.1019 212.715C73.9796 211.32 68.7675 210.199 63.4864 209.363L63.33 210.351ZM181.32 316.16C182.705 321.247 183.818 326.424 184.649 331.669L185.637 331.513C184.8 326.232 183.679 321.02 182.285 315.897L181.32 316.16ZM184.649 331.669C189.47 362.111 184.531 393.297 170.539 420.759L171.43 421.213C185.518 393.563 190.491 362.163 185.637 331.513L184.649 331.669ZM170.539 420.759C156.546 448.221 134.219 470.548 106.757 484.54L107.211 485.431C134.861 471.343 157.341 448.863 171.43 421.213L170.539 420.759ZM106.757 484.54C79.8882 498.231 49.4532 503.255 19.639 498.949L19.4961 499.939C49.5145 504.274 80.1581 499.215 107.211 485.431L106.757 484.54ZM19.639 498.949C18.2797 498.753 16.9992 499.676 16.7829 501.042L17.7706 501.198C17.8999 500.382 18.669 499.819 19.4961 499.939L19.639 498.949ZM16.7829 501.042L6.12494 568.333L7.11261 568.49L17.7706 501.198L16.7829 501.042ZM6.12494 568.333C5.90909 569.696 6.83978 570.981 8.20984 571.185L8.35724 570.196C7.5423 570.075 6.98288 569.309 7.11261 568.49L6.12494 568.333ZM8.20984 571.185C53.2748 577.901 99.3318 570.4 139.958 549.7L139.504 548.809C99.0632 569.414 53.2165 576.881 8.35724 570.196L8.20984 571.185ZM139.958 549.7C181.18 528.696 214.695 495.182 235.698 453.96L234.807 453.506C213.899 494.539 180.538 527.901 139.504 548.809L139.958 549.7ZM235.698 453.96C256.702 412.737 264.116 365.924 256.879 320.229L255.891 320.386C263.096 365.872 255.715 412.472 234.807 453.506L235.698 453.96ZM256.879 320.229C254.452 304.909 250.421 289.977 244.9 275.663L243.967 276.023C249.462 290.272 253.476 305.135 255.891 320.386L256.879 320.229ZM181.875 316.523C208.229 312.655 230.912 297.495 244.852 276.116L244.014 275.57C230.226 296.716 207.792 311.709 181.73 315.534L181.875 316.523Z" fill="#FAFAFA" mask="url(#path-1-inside-1_0_86)"/>
</g>
<mask id="path-3-inside-2_0_86" fill="white">
<path fill-rule="evenodd" clip-rule="evenodd" d="M70.8739 7.32643C70.9702 6.22607 70.1552 5.25532 69.0542 5.16533C-2.14743 -0.654832 -73.446 15.4211 -135.279 51.2646C-197.69 87.4426 -247.417 141.997 -277.676 207.482C-307.934 272.967 -317.25 346.194 -304.351 417.17C-297.418 455.322 -284.248 491.824 -265.571 525.293C-275.664 540.459 -281.546 558.668 -281.546 578.251C-281.546 631.11 -238.696 673.96 -185.837 673.96C-166.648 673.96 -148.778 668.312 -133.798 658.589C-97.9581 679.132 -58.5607 693.296 -17.3493 700.193C53.7995 712.099 126.889 701.762 191.946 670.592C257.002 639.422 310.857 588.938 346.16 526.029C381.137 463.701 396.216 392.185 389.402 321.071C389.297 319.972 388.315 319.17 387.216 319.282L324.941 325.608C323.842 325.719 323.043 326.701 323.147 327.801C328.576 385.278 316.354 443.063 288.085 493.438C259.489 544.395 215.867 585.287 163.171 610.535C110.475 635.782 51.2726 644.155 -6.35797 634.511C-37.1251 629.362 -66.644 619.213 -93.809 604.626C-91.4123 596.248 -90.1289 587.399 -90.1289 578.251C-90.1289 525.393 -132.979 482.543 -185.837 482.543C-194.601 482.543 -203.089 483.721 -211.153 485.927C-224.31 460.732 -233.688 433.557 -238.83 405.263C-249.277 347.772 -241.732 288.459 -217.222 235.415C-192.713 182.372 -152.434 138.184 -101.881 108.879C-51.9059 79.9097 5.7027 66.8817 63.2501 71.5082C64.3511 71.5967 65.3221 70.7835 65.4183 69.6832L70.8739 7.32643ZM-211.153 485.927C-197.576 511.923 -179.973 535.812 -158.845 556.647C-139.451 575.772 -117.527 591.89 -93.809 604.626C-100.233 627.084 -114.656 646.164 -133.798 658.589C-159.834 643.666 -183.992 625.378 -205.605 604.065C-229.359 580.64 -249.503 554.089 -265.571 525.293C-252.938 506.311 -233.707 492.097 -211.153 485.927ZM259.076 226.458C259.076 244.678 253.694 261.641 244.433 275.843C233.512 247.53 216.752 221.639 195.056 199.943C173.36 178.247 147.469 161.487 119.156 150.566C133.358 141.305 150.321 135.923 168.541 135.923C218.542 135.923 259.076 176.457 259.076 226.458ZM78.9706 213.197C103.493 219.874 125.952 232.847 144.052 250.947C162.153 269.047 175.126 291.506 181.802 316.029C177.474 316.664 173.046 316.993 168.541 316.993C118.54 316.993 78.0063 276.459 78.0063 226.458C78.0063 221.953 78.3353 217.525 78.9706 213.197ZM78.9706 213.197C82.8172 186.989 97.8933 164.431 119.156 150.566C104.875 145.058 89.9775 141.035 74.6919 138.614C29.1012 131.393 -17.6052 138.791 -58.7332 159.747C-99.8611 180.703 -133.299 214.141 -154.255 255.269C-174.908 295.802 -182.392 341.754 -175.691 386.716C-175.528 387.809 -174.503 388.554 -173.412 388.381L-106.12 377.723C-105.029 377.55 -104.286 376.525 -104.444 375.432C-108.765 345.516 -103.724 314.976 -89.9862 288.015C-75.9458 260.459 -53.5423 238.056 -25.9866 224.016C1.56915 209.975 32.8624 205.019 63.4082 209.857C68.6713 210.69 73.8657 211.807 78.9706 213.197ZM181.802 316.029C183.192 321.134 184.309 326.328 185.143 331.591C189.981 362.137 185.024 393.43 170.984 420.986C156.944 448.542 134.54 470.945 106.984 484.986C80.0231 498.723 49.4839 503.764 19.5676 499.444C18.4743 499.286 17.4495 500.029 17.2767 501.12L6.61877 568.411C6.44598 569.502 7.19104 570.528 8.28354 570.691C53.2457 577.391 99.1975 569.907 139.731 549.254C180.859 528.299 214.297 494.861 235.253 453.733C256.208 412.605 263.606 365.898 256.385 320.307C253.964 305.022 249.941 290.124 244.433 275.843C230.569 297.106 208.011 312.182 181.802 316.029Z"/>
</mask>
<path d="M69.0542 5.16533L69.0135 5.66367L69.0542 5.16533ZM70.8739 7.32643L70.3758 7.28285V7.28286L70.8739 7.32643ZM-135.279 51.2646L-135.53 50.832L-135.279 51.2646ZM-277.676 207.482L-277.222 207.692L-277.676 207.482ZM-304.351 417.17L-304.843 417.259L-304.351 417.17ZM-17.3493 700.193L-17.4319 700.686L-17.3493 700.193ZM191.946 670.592L192.162 671.043L191.946 670.592ZM346.16 526.029L345.724 525.784L346.16 526.029ZM389.402 321.071L388.904 321.119L389.402 321.071ZM387.216 319.282L387.266 319.779L387.216 319.282ZM324.941 325.608L324.992 326.105L324.941 325.608ZM323.147 327.801L323.644 327.754L323.147 327.801ZM288.085 493.438L287.648 493.193L288.085 493.438ZM163.171 610.535L163.387 610.986L163.171 610.535ZM-6.35797 634.511L-6.44049 635.004L-6.35797 634.511ZM-238.83 405.263L-239.322 405.352L-238.83 405.263ZM-217.222 235.415L-216.768 235.625L-217.222 235.415ZM-101.881 108.879L-101.63 109.312L-101.881 108.879ZM63.2501 71.5082L63.21 72.0066L63.2501 71.5082ZM65.4183 69.6832L65.9164 69.7268V69.7268L65.4183 69.6832ZM-158.845 556.647L-158.494 556.291L-158.845 556.647ZM-205.605 604.065L-205.956 604.421L-205.605 604.065ZM195.056 199.943L194.703 200.297L195.056 199.943ZM144.052 250.947L143.699 251.301L144.052 250.947ZM74.6919 138.614L74.7701 138.12L74.6919 138.614ZM-58.7332 159.747L-58.9602 159.301L-58.7332 159.747ZM-154.255 255.269L-153.809 255.496L-154.255 255.269ZM-175.691 386.716L-175.197 386.642L-175.691 386.716ZM-173.412 388.381L-173.334 388.875L-173.412 388.381ZM-106.12 377.723L-106.198 377.229L-106.12 377.723ZM-104.444 375.432L-103.949 375.361L-104.444 375.432ZM-89.9862 288.015L-89.5406 288.242L-89.9862 288.015ZM-25.9866 224.016L-25.7596 224.461L-25.9866 224.016ZM63.4082 209.857L63.33 210.351L63.4082 209.857ZM185.143 331.591L185.637 331.513L185.143 331.591ZM170.984 420.986L171.43 421.213L170.984 420.986ZM106.984 484.986L106.757 484.54L106.984 484.986ZM19.5676 499.444L19.4961 499.939L19.5676 499.444ZM17.2767 501.12L16.7829 501.042L17.2767 501.12ZM6.61877 568.411L7.11261 568.49L6.61877 568.411ZM8.28354 570.691L8.35724 570.196L8.28354 570.691ZM139.731 549.254L139.504 548.809L139.731 549.254ZM235.253 453.733L234.807 453.506L235.253 453.733ZM256.385 320.307L255.891 320.386L256.385 320.307ZM69.0135 5.66367C69.8366 5.73095 70.448 6.45719 70.3758 7.28285L71.372 7.37002C71.4923 5.99495 70.4737 4.77969 69.095 4.66699L69.0135 5.66367ZM-135.029 51.6972C-73.2835 15.9048 -2.08658 -0.148191 69.0135 5.66367L69.095 4.66699C-2.20828 -1.16147 -73.6086 14.9374 -135.53 50.832L-135.029 51.6972ZM-277.222 207.692C-247.006 142.3 -197.35 87.8236 -135.029 51.6972L-135.53 50.832C-198.03 87.0617 -247.828 141.693 -278.13 207.272L-277.222 207.692ZM-303.86 417.081C-316.74 346.206 -307.437 273.084 -277.222 207.692L-278.13 207.272C-308.431 272.851 -317.76 346.182 -304.843 417.259L-303.86 417.081ZM-265.135 525.05C-283.785 491.628 -296.936 455.178 -303.86 417.081L-304.843 417.259C-297.9 455.465 -284.711 492.02 -266.008 525.537L-265.135 525.05ZM-281.046 578.251C-281.046 558.77 -275.195 540.656 -265.155 525.57L-265.988 525.016C-276.133 540.261 -282.046 558.567 -282.046 578.251H-281.046ZM-185.837 673.46C-238.419 673.46 -281.046 630.833 -281.046 578.251H-282.046C-282.046 631.386 -238.972 674.46 -185.837 674.46V673.46ZM-134.07 658.17C-148.972 667.842 -166.748 673.46 -185.837 673.46V674.46C-166.549 674.46 -148.584 668.783 -133.526 659.009L-134.07 658.17ZM-17.2668 699.7C-58.4194 692.813 -97.7606 678.669 -133.549 658.155L-134.047 659.023C-98.1556 679.595 -58.702 693.78 -17.4319 700.686L-17.2668 699.7ZM191.73 670.141C126.766 701.267 53.7805 711.589 -17.2668 699.7L-17.4319 700.686C53.8185 712.609 127.012 702.257 192.162 671.043L191.73 670.141ZM345.724 525.784C310.471 588.604 256.693 639.016 191.73 670.141L192.162 671.043C257.311 639.829 311.242 589.272 346.596 526.273L345.724 525.784ZM388.904 321.119C395.708 392.131 380.651 463.545 345.724 525.784L346.596 526.273C381.622 463.857 396.723 392.239 389.9 321.024L388.904 321.119ZM387.266 319.779C388.091 319.696 388.825 320.297 388.904 321.119L389.9 321.024C389.768 319.647 388.538 318.645 387.165 318.785L387.266 319.779ZM324.992 326.105L387.266 319.779L387.165 318.785L324.891 325.11L324.992 326.105ZM323.644 327.754C323.566 326.925 324.169 326.189 324.992 326.105L324.891 325.11C323.516 325.25 322.519 326.478 322.649 327.848L323.644 327.754ZM288.521 493.683C316.839 443.219 329.083 385.332 323.644 327.754L322.649 327.848C328.069 385.224 315.868 442.907 287.648 493.193L288.521 493.683ZM163.387 610.986C216.176 585.693 259.875 544.729 288.521 493.683L287.648 493.193C259.103 544.06 215.558 584.881 162.955 610.084L163.387 610.986ZM-6.44049 635.004C51.2916 644.665 110.598 636.278 163.387 610.986L162.955 610.084C110.352 635.287 51.2536 643.645 -6.27545 634.018L-6.44049 635.004ZM-94.0456 605.066C-66.8327 619.679 -37.2618 629.847 -6.44049 635.004L-6.27545 634.018C-36.9884 628.878 -66.4553 618.746 -93.5725 604.185L-94.0456 605.066ZM-90.6289 578.251C-90.6289 587.352 -91.9057 596.154 -94.2897 604.488L-93.3283 604.763C-90.919 596.341 -89.6289 587.446 -89.6289 578.251H-90.6289ZM-185.837 483.043C-133.255 483.043 -90.6289 525.669 -90.6289 578.251H-89.6289C-89.6289 525.117 -132.703 482.043 -185.837 482.043V483.043ZM-211.021 486.409C-203 484.215 -194.556 483.043 -185.837 483.043V482.043C-194.646 482.043 -203.178 483.227 -211.284 485.444L-211.021 486.409ZM-239.322 405.352C-234.171 433.697 -224.777 460.919 -211.596 486.158L-210.709 485.695C-223.844 460.545 -233.205 433.418 -238.338 405.173L-239.322 405.352ZM-217.676 235.206C-242.229 288.342 -249.788 347.76 -239.322 405.352L-238.338 405.173C-248.767 347.784 -241.235 288.575 -216.768 235.625L-217.676 235.206ZM-102.132 108.447C-152.773 137.803 -193.124 182.069 -217.676 235.206L-216.768 235.625C-192.302 182.675 -152.094 138.564 -101.63 109.312L-102.132 108.447ZM63.2901 71.0098C5.64142 66.3751 -52.0687 79.4261 -102.132 108.447L-101.63 109.312C-51.7432 80.3933 5.76398 67.3882 63.21 72.0066L63.2901 71.0098ZM64.9202 69.6396C64.8481 70.4637 64.1199 71.0765 63.2901 71.0098L63.21 72.0066C64.5823 72.1169 65.796 71.1034 65.9164 69.7268L64.9202 69.6396ZM70.3758 7.28286L64.9202 69.6396L65.9164 69.7268L71.372 7.37001L70.3758 7.28286ZM-158.494 556.291C-179.585 535.493 -197.156 511.646 -210.709 485.695L-211.596 486.158C-197.995 512.201 -180.362 536.131 -159.196 557.003L-158.494 556.291ZM-93.5725 604.185C-117.249 591.472 -139.134 575.382 -158.494 556.291L-159.196 557.003C-139.768 576.162 -117.806 592.308 -94.0456 605.066L-93.5725 604.185ZM-133.526 659.009C-114.284 646.519 -99.7864 627.34 -93.3283 604.763L-94.2897 604.488C-100.68 626.828 -115.027 645.809 -134.07 658.17L-133.526 659.009ZM-205.956 604.421C-184.312 625.764 -160.119 644.079 -134.047 659.023L-133.549 658.155C-159.548 643.254 -183.672 624.991 -205.254 603.709L-205.956 604.421ZM-266.008 525.537C-249.917 554.374 -229.744 580.962 -205.956 604.421L-205.254 603.709C-228.974 580.317 -249.089 553.804 -265.135 525.05L-266.008 525.537ZM-211.284 485.444C-233.958 491.647 -253.289 505.935 -265.988 525.016L-265.155 525.57C-252.587 506.686 -233.456 492.546 -211.021 486.409L-211.284 485.444ZM244.852 276.116C254.164 261.835 259.576 244.778 259.576 226.458H258.576C258.576 244.578 253.224 261.446 244.014 275.57L244.852 276.116ZM244.9 275.663C233.954 247.286 217.156 221.335 195.41 199.589L194.703 200.297C216.349 221.943 233.071 247.775 243.967 276.023L244.9 275.663ZM195.41 199.589C173.664 177.844 147.714 161.045 119.336 150.1L118.976 151.033C147.224 161.928 173.056 178.65 194.703 200.297L195.41 199.589ZM168.541 135.423C150.221 135.423 133.164 140.835 118.883 150.147L119.429 150.985C133.553 141.775 150.421 136.423 168.541 136.423V135.423ZM259.576 226.458C259.576 176.181 218.819 135.423 168.541 135.423V136.423C218.266 136.423 258.576 176.733 258.576 226.458H259.576ZM78.8392 213.68C103.278 220.333 125.66 233.262 143.699 251.301L144.406 250.593C126.244 232.431 103.708 219.414 79.1019 212.715L78.8392 213.68ZM143.699 251.301C161.737 269.339 174.666 291.721 181.32 316.16L182.285 315.897C175.585 291.291 162.568 268.756 144.406 250.593L143.699 251.301ZM168.541 317.493C173.07 317.493 177.523 317.162 181.875 316.523L181.73 315.534C177.425 316.166 173.022 316.493 168.541 316.493V317.493ZM77.5063 226.458C77.5063 276.735 118.264 317.493 168.541 317.493V316.493C118.816 316.493 78.5063 276.183 78.5063 226.458H77.5063ZM78.4759 213.125C77.8371 217.477 77.5063 221.929 77.5063 226.458H78.5063C78.5063 221.978 78.8336 217.574 79.4653 213.27L78.4759 213.125ZM118.883 150.147C97.5039 164.088 82.344 186.77 78.4759 213.125L79.4653 213.27C83.2904 187.208 98.2828 164.774 119.429 150.985L118.883 150.147ZM119.336 150.1C105.022 144.579 90.0907 140.547 74.7701 138.12L74.6136 139.108C89.8643 141.524 104.727 145.537 118.976 151.033L119.336 150.1ZM74.7701 138.12C29.0751 130.883 -17.7381 138.298 -58.9602 159.301L-58.5062 160.192C-17.4723 139.284 29.1272 131.904 74.6136 139.108L74.7701 138.12ZM-58.9602 159.301C-100.182 180.305 -133.697 213.82 -154.7 255.042L-153.809 255.496C-132.902 214.462 -99.5401 181.1 -58.5062 160.192L-58.9602 159.301ZM-154.7 255.042C-175.401 295.668 -182.901 341.725 -176.186 386.79L-175.197 386.642C-181.882 341.783 -174.415 295.936 -153.809 255.496L-154.7 255.042ZM-176.186 386.79C-175.982 388.16 -174.697 389.091 -173.334 388.875L-173.49 387.887C-174.309 388.017 -175.075 387.457 -175.197 386.642L-176.186 386.79ZM-173.334 388.875L-106.042 378.217L-106.198 377.229L-173.49 387.887L-173.334 388.875ZM-106.042 378.217C-104.676 378 -103.753 376.72 -103.949 375.361L-104.939 375.504C-104.82 376.331 -105.382 377.1 -106.198 377.229L-106.042 378.217ZM-103.949 375.361C-108.255 345.546 -103.231 315.111 -89.5406 288.242L-90.4317 287.788C-104.216 314.841 -109.274 345.485 -104.939 375.504L-103.949 375.361ZM-89.5406 288.242C-75.5483 260.78 -53.2213 238.453 -25.7596 224.461L-26.2136 223.57C-53.8634 237.658 -76.3434 260.138 -90.4317 287.788L-89.5406 288.242ZM-25.7596 224.461C1.70206 210.469 32.8885 205.529 63.33 210.351L63.4864 209.363C32.8364 204.508 1.43625 209.482 -26.2136 223.57L-25.7596 224.461ZM63.33 210.351C68.5751 211.181 73.7517 212.295 78.8392 213.68L79.1019 212.715C73.9796 211.32 68.7675 210.199 63.4864 209.363L63.33 210.351ZM181.32 316.16C182.705 321.247 183.818 326.424 184.649 331.669L185.637 331.513C184.8 326.232 183.679 321.02 182.285 315.897L181.32 316.16ZM184.649 331.669C189.47 362.111 184.531 393.297 170.539 420.759L171.43 421.213C185.518 393.563 190.491 362.163 185.637 331.513L184.649 331.669ZM170.539 420.759C156.546 448.221 134.219 470.548 106.757 484.54L107.211 485.431C134.861 471.343 157.341 448.863 171.43 421.213L170.539 420.759ZM106.757 484.54C79.8882 498.231 49.4532 503.255 19.639 498.949L19.4961 499.939C49.5145 504.274 80.1581 499.215 107.211 485.431L106.757 484.54ZM19.639 498.949C18.2797 498.753 16.9992 499.676 16.7829 501.042L17.7706 501.198C17.8999 500.382 18.669 499.819 19.4961 499.939L19.639 498.949ZM16.7829 501.042L6.12494 568.333L7.11261 568.49L17.7706 501.198L16.7829 501.042ZM6.12494 568.333C5.90909 569.696 6.83978 570.981 8.20984 571.185L8.35724 570.196C7.5423 570.075 6.98288 569.309 7.11261 568.49L6.12494 568.333ZM8.20984 571.185C53.2748 577.901 99.3318 570.4 139.958 549.7L139.504 548.809C99.0632 569.414 53.2165 576.881 8.35724 570.196L8.20984 571.185ZM139.958 549.7C181.18 528.696 214.695 495.182 235.698 453.96L234.807 453.506C213.899 494.539 180.538 527.901 139.504 548.809L139.958 549.7ZM235.698 453.96C256.702 412.737 264.116 365.924 256.879 320.229L255.891 320.386C263.096 365.872 255.715 412.472 234.807 453.506L235.698 453.96ZM256.879 320.229C254.452 304.909 250.421 289.977 244.9 275.663L243.967 276.023C249.462 290.272 253.476 305.135 255.891 320.386L256.879 320.229ZM181.875 316.523C208.229 312.655 230.912 297.495 244.852 276.116L244.014 275.57C230.226 296.716 207.792 311.709 181.73 315.534L181.875 316.523Z" fill="#FAFAFA" mask="url(#path-3-inside-2_0_86)"/>
<defs>
<filter id="filter0_f_0_86" x="-314" y="0" width="709" height="709" filterUnits="userSpaceOnUse" color-interpolation-filters="sRGB">
<feFlood flood-opacity="0" result="BackgroundImageFix"/>
<feBlend mode="normal" in="SourceGraphic" in2="BackgroundImageFix" result="shape"/>
<feGaussianBlur stdDeviation="2" result="effect1_foregroundBlur_0_86"/>
</filter>
</defs>
</svg>
